<?xml version="1.0" standalone="no"?>
<!DOCTYPE svg PUBLIC "-//W3C//DTD SVG 20010904//EN"
 "http://www.w3.org/TR/2001/REC-SVG-20010904/DTD/svg10.dtd">
<svg version="1.0" xmlns="http://www.w3.org/2000/svg"
 width="2400.000000pt" height="3200.000000pt" viewBox="0 0 2400.000000 3200.000000"
 preserveAspectRatio="xMidYMid meet">
<metadata>
Created by potrace 1.16, written by Peter Selinger 2001-2019
</metadata>
<g transform="translate(0.000000,3200.000000) scale(0.100000,-0.100000)"
fill="#000000" stroke="none">
<path d="M2186 31573 c-4 -4 -35 -11 -69 -15 -114 -14 -147 -20 -153 -29 -3
-5 -18 -9 -33 -9 -16 0 -34 -7 -41 -15 -7 -8 -23 -15 -36 -15 -12 0 -26 -4
-29 -10 -3 -5 -17 -10 -31 -10 -13 0 -24 -4 -24 -10 0 -5 -9 -10 -20 -10 -11
0 -28 -4 -38 -9 -74 -37 -106 -51 -118 -51 -8 0 -14 -3 -14 -8 0 -4 -15 -14
-32 -21 -41 -18 -172 -102 -176 -113 -2 -4 -8 -8 -13 -8 -6 0 -24 -13 -42 -30
-18 -16 -35 -30 -40 -30 -7 0 -237 -229 -270 -269 -9 -12 -17 -26 -17 -31 0
-6 -4 -10 -10 -10 -5 0 -10 -5 -10 -10 0 -6 -10 -22 -23 -35 -74 -78 -163
-236 -239 -425 -6 -14 -14 -33 -19 -42 -5 -10 -9 -25 -9 -33 0 -8 -4 -23 -9
-33 -14 -29 -31 -87 -31 -110 0 -11 -4 -24 -10 -27 -5 -3 -10 -24 -10 -45 0
-21 -5 -42 -10 -45 -6 -3 -10 -33 -10 -65 0 -32 -5 -62 -10 -65 -13 -8 -14
-9257 -1 -9271 5 -5 12 -36 15 -69 8 -93 17 -145 27 -151 5 -3 9 -20 9 -39 0
-19 5 -37 10 -40 6 -3 10 -17 10 -30 0 -13 4 -27 10 -30 5 -3 10 -15 10 -26 0
-10 4 -27 9 -37 5 -9 13 -28 19 -42 58 -143 131 -283 189 -364 21 -28 40 -53
43 -56 4 -3 21 -27 39 -53 40 -59 266 -287 309 -313 18 -10 32 -22 32 -26 0
-4 6 -8 14 -8 8 0 16 -3 18 -8 4 -9 105 -82 114 -82 3 0 24 -13 47 -28 23 -15
74 -43 112 -61 39 -18 78 -37 87 -42 10 -5 27 -9 38 -9 11 0 20 -4 20 -10 0
-5 11 -10 24 -10 14 0 28 -4 31 -10 3 -5 17 -10 29 -10 13 0 29 -7 36 -15 7
-8 23 -15 36 -15 12 0 25 -4 28 -9 3 -5 23 -11 43 -15 21 -3 65 -10 98 -15 33
-6 83 -14 110 -18 35 -6 50 -13 49 -23 -1 -8 -33 -130 -72 -270 -39 -140 -89
-329 -112 -420 -23 -91 -61 -237 -85 -325 -24 -88 -58 -214 -76 -280 -17 -66
-51 -191 -75 -278 -24 -88 -52 -205 -63 -261 -11 -56 -74 -293 -141 -526 -66
-234 -126 -456 -132 -495 -6 -38 -51 -211 -100 -384 -82 -292 -104 -351 -133
-351 -6 0 -10 -3 -56 -43 -14 -12 -43 -35 -64 -52 -40 -31 -178 -166 -205
-201 -8 -10 -26 -35 -40 -54 -13 -19 -27 -37 -30 -40 -18 -15 -144 -206 -180
-274 -23 -44 -48 -89 -55 -100 -8 -12 -28 -57 -45 -101 -17 -44 -36 -84 -41
-90 -5 -5 -9 -19 -9 -32 0 -13 -4 -23 -10 -23 -5 0 -10 -10 -10 -23 0 -13 -4
-27 -8 -32 -5 -6 -19 -44 -31 -85 -13 -41 -27 -83 -32 -92 -5 -10 -9 -31 -9
-48 0 -16 -4 -30 -10 -30 -5 0 -10 -15 -10 -34 0 -19 -5 -38 -10 -41 -6 -3
-10 -26 -10 -50 0 -24 -4 -47 -10 -50 -6 -3 -10 -28 -10 -54 0 -26 -4 -51 -9
-56 -5 -6 -12 -44 -16 -85 -12 -130 -9 -11444 3 -11540 6 -47 15 -107 21 -135
14 -66 30 -152 38 -193 3 -18 9 -35 14 -38 5 -3 9 -20 9 -39 0 -19 5 -37 10
-40 6 -3 10 -17 10 -30 0 -13 5 -27 10 -30 6 -3 10 -17 10 -30 0 -13 5 -27 10
-30 6 -3 10 -17 10 -30 0 -13 5 -27 10 -30 6 -3 10 -17 10 -31 0 -13 5 -24 10
-24 6 0 10 -5 10 -12 0 -17 74 -194 108 -259 68 -130 178 -302 227 -355 6 -6
21 -26 35 -45 32 -45 248 -259 261 -259 6 0 20 -11 33 -25 13 -14 28 -25 34
-25 5 0 12 -6 15 -13 3 -8 21 -22 41 -31 20 -9 36 -21 36 -26 0 -6 5 -10 11
-10 6 0 25 -11 43 -25 18 -14 40 -25 48 -25 9 0 21 -7 28 -15 7 -8 21 -15 31
-15 11 0 19 -4 19 -10 0 -5 11 -10 24 -10 13 0 29 -7 36 -15 7 -8 21 -15 31
-15 10 0 21 -4 24 -10 3 -5 23 -10 45 -10 24 0 40 -5 44 -15 4 -10 20 -15 53
-15 26 0 57 -7 67 -15 17 -13 545 -15 4240 -15 3725 0 4224 2 4250 15 15 8 48
15 72 15 30 0 46 5 50 15 4 10 20 15 44 15 22 0 42 5 45 10 3 6 15 10 26 10
11 0 22 7 25 15 4 8 17 15 29 15 13 0 27 4 30 10 3 5 14 10 24 10 10 0 24 7
31 15 7 8 21 15 31 15 11 0 19 4 19 9 0 5 8 11 18 15 24 8 56 29 65 44 4 6 15
12 22 12 8 0 15 5 15 10 0 6 5 10 11 10 10 0 23 10 80 62 10 10 23 18 28 18
22 0 223 211 314 330 44 57 67 89 67 95 0 3 9 16 20 27 11 12 30 42 43 67 13
26 44 84 69 131 26 47 59 117 74 155 15 39 31 72 36 73 4 2 8 15 8 28 0 13 5
24 10 24 6 0 10 11 10 24 0 14 5 28 10 31 6 3 10 16 10 29 0 12 4 26 8 32 5 5
14 29 21 54 7 25 17 53 22 62 5 10 9 31 9 48 0 16 5 30 10 30 6 0 10 18 10 39
0 22 5 43 10 46 6 3 10 23 10 44 0 20 4 41 9 47 5 5 12 34 15 64 4 30 11 91
17 135 6 44 13 169 15 278 l5 197 67 0 c37 0 281 5 542 10 261 6 649 14 862
19 295 6 390 11 403 21 13 11 15 42 9 264 -4 138 -10 255 -15 260 -8 9 -1042
-4 -1641 -21 l-228 -6 0 1810 0 1811 63 -15 c60 -14 434 -107 687 -172 69 -17
184 -45 255 -62 72 -17 223 -56 337 -86 114 -31 214 -53 222 -50 15 6 31 54
65 197 64 269 75 320 70 324 -3 3 -115 34 -250 69 -232 61 -296 77 -639 164
-80 20 -246 62 -370 94 -124 32 -250 63 -280 69 -30 6 -79 17 -107 25 l-53 16
0 2203 0 2204 73 6 c39 3 385 10 767 16 382 6 701 13 708 15 9 3 12 66 12 266
l0 262 -412 -6 c-227 -4 -578 -10 -780 -14 l-368 -6 -4 644 c-5 645 -9 796
-27 814 -5 5 -9 30 -9 56 0 26 -4 51 -10 54 -5 3 -10 26 -10 50 0 24 -4 47
-10 50 -5 3 -10 22 -10 41 0 19 -4 34 -10 34 -5 0 -10 14 -10 30 0 17 -4 38
-9 48 -5 9 -14 37 -21 62 -7 25 -16 53 -21 62 -5 10 -9 27 -9 38 0 11 -4 20
-10 20 -5 0 -10 11 -10 25 0 14 -4 25 -10 25 -5 0 -10 11 -10 25 0 14 -4 25
-10 25 -5 0 -10 7 -10 15 0 8 -4 23 -10 33 -5 9 -21 46 -36 82 -14 36 -34 76
-44 90 -9 14 -23 40 -31 58 -8 17 -17 32 -21 32 -5 0 -8 7 -8 15 0 8 -4 15
-10 15 -5 0 -10 7 -10 16 0 16 -38 76 -52 82 -4 2 -8 8 -8 13 0 5 -17 33 -37
61 -36 51 -49 67 -83 108 -8 9 -26 32 -40 50 -22 30 -159 169 -192 196 -89 71
-262 186 -324 214 -27 12 -69 32 -94 44 -25 12 -67 28 -95 36 -27 7 -55 17
-62 22 -7 6 -40 12 -73 15 -33 3 -63 10 -66 14 -3 5 -1843 9 -4128 9 l-4124 0
19 72 c11 40 28 104 39 143 10 38 21 86 24 106 3 20 39 155 80 300 41 145 86
309 100 364 14 55 41 158 61 229 19 71 35 143 35 160 0 16 59 236 130 488 72
252 134 481 137 510 4 39 174 665 218 805 3 8 33 3 101 -18 78 -23 100 -27
109 -17 14 15 55 156 55 187 l0 21 4033 4 c2217 2 4059 7 4092 11 33 4 64 11
70 16 5 5 26 9 46 9 21 0 41 5 44 10 3 6 15 10 25 10 10 0 25 7 34 15 8 8 26
15 40 15 14 0 26 5 26 10 0 6 14 10 30 10 17 0 30 5 30 10 0 6 9 10 19 10 10
0 45 14 76 30 31 17 63 30 71 30 8 0 14 5 14 10 0 6 4 10 9 10 12 0 165 92
169 102 2 4 9 8 16 8 6 0 18 9 26 20 8 11 18 20 23 20 24 0 224 182 316 287
64 74 165 223 212 313 19 36 37 67 41 68 5 2 8 10 8 18 0 8 4 22 9 32 42 83
59 123 71 162 7 25 17 49 22 55 4 5 8 19 8 31 0 13 4 25 9 28 5 3 11 20 14 38
4 18 9 49 12 68 4 19 10 44 15 55 5 11 12 47 16 80 3 33 8 1407 10 3053 l4
2992 96 0 95 0 62 58 c74 69 94 87 143 131 63 55 228 205 244 221 8 8 58 53
110 99 52 47 101 91 108 100 7 9 12 47 12 103 0 103 7 94 -164 231 -22 17 -56
46 -76 62 -19 17 -66 55 -105 85 -38 30 -86 68 -106 85 -19 16 -59 50 -88 74
-30 25 -59 50 -65 55 -6 6 -33 29 -61 51 -47 38 -54 40 -127 44 l-78 3 -4 932
c-4 900 -7 1028 -26 1071 -5 11 -11 36 -15 55 -3 19 -8 50 -12 68 -3 18 -9 35
-14 38 -5 3 -9 15 -9 28 0 12 -4 26 -8 31 -4 6 -14 28 -21 50 -11 35 -47 118
-72 167 -5 10 -9 24 -9 32 0 8 -3 16 -8 18 -4 2 -22 32 -41 68 -94 180 -209
321 -446 548 -8 6 -18 12 -24 12 -6 0 -11 4 -11 8 0 4 -12 15 -27 24 -16 9
-42 29 -60 43 -43 36 -210 135 -228 135 -8 0 -15 5 -15 10 0 6 -9 10 -20 10
-11 0 -20 5 -20 10 0 6 -9 10 -19 10 -11 0 -23 5 -26 10 -3 6 -17 10 -31 10
-13 0 -24 5 -24 10 0 6 -13 10 -30 10 -16 0 -30 5 -30 10 0 6 -13 10 -29 10
-16 0 -31 5 -33 11 -2 5 -21 15 -43 20 -22 6 -58 15 -80 21 -22 5 -67 12 -100
15 -33 3 -64 9 -69 14 -12 11 -9019 13 -9030 2z m9014 -263 c0 -5 23 -10 50
-10 28 0 50 -4 50 -10 0 -5 18 -10 39 -10 22 0 43 -4 46 -10 3 -5 15 -10 25
-10 10 0 31 -6 47 -14 15 -8 39 -19 53 -24 42 -17 164 -72 185 -84 11 -6 45
-25 75 -41 30 -17 57 -34 58 -39 2 -4 9 -8 16 -8 7 0 21 -8 32 -18 10 -9 31
-26 45 -37 109 -85 191 -164 259 -250 25 -31 50 -62 55 -68 22 -26 95 -138 95
-147 0 -5 6 -15 13 -22 12 -14 28 -40 47 -78 6 -11 15 -29 20 -40 6 -11 10
-27 10 -35 0 -8 5 -15 10 -15 6 0 10 -7 10 -15 0 -8 5 -24 10 -35 6 -11 15
-29 20 -40 6 -11 10 -27 10 -35 0 -8 4 -23 9 -33 15 -30 31 -88 31 -113 0 -14
4 -29 9 -34 10 -11 17 -59 32 -220 6 -63 13 -531 15 -1087 l4 -977 -257 -6
c-638 -13 -803 -16 -1353 -26 -322 -6 -769 -15 -995 -20 -225 -5 -569 -11
-762 -14 -348 -6 -353 -6 -364 -27 -8 -15 -10 -66 -5 -167 3 -80 9 -240 12
-356 3 -115 7 -220 10 -232 l4 -23 318 1 c174 0 531 5 792 11 1179 24 2053 44
2393 53 l207 6 -4 -3023 c-3 -1981 -8 -3063 -15 -3138 -14 -163 -22 -214 -32
-224 -5 -6 -9 -27 -9 -47 0 -21 -4 -41 -10 -44 -5 -3 -10 -17 -10 -30 0 -13
-4 -27 -10 -30 -5 -3 -10 -15 -10 -26 0 -10 -4 -28 -10 -39 -5 -11 -14 -29
-20 -40 -5 -11 -10 -27 -10 -35 0 -8 -4 -15 -10 -15 -5 0 -10 -7 -10 -15 0 -8
-4 -23 -9 -33 -5 -9 -12 -24 -15 -32 -3 -8 -17 -33 -31 -55 -14 -22 -28 -47
-32 -55 -4 -8 -18 -31 -32 -51 -15 -20 -42 -58 -61 -85 -19 -27 -40 -55 -47
-62 -7 -8 -26 -30 -41 -50 -40 -54 -68 -82 -162 -161 -47 -39 -95 -80 -107
-91 -12 -11 -34 -25 -48 -32 -14 -6 -25 -15 -25 -20 0 -4 -9 -8 -20 -8 -11 0
-20 -4 -20 -8 0 -5 -16 -14 -35 -22 -19 -8 -35 -17 -35 -22 0 -4 -7 -8 -15 -8
-8 0 -23 -4 -33 -10 -51 -28 -171 -80 -185 -80 -9 0 -19 -4 -22 -10 -3 -5 -17
-10 -30 -10 -13 0 -27 -5 -30 -10 -3 -5 -24 -10 -46 -10 -21 0 -39 -4 -39 -10
0 -5 -24 -10 -54 -10 -30 0 -58 -4 -61 -10 -3 -6 -52 -10 -110 -10 -58 0 -107
-4 -110 -10 -4 -7 -1330 -10 -3944 -10 -3489 0 -3940 2 -3951 15 -7 8 -10 15
-7 15 6 0 -64 216 -82 255 -5 11 -21 54 -36 95 -43 123 -42 122 -125 147 -90
28 -120 29 -146 6 -10 -10 -53 -47 -94 -83 -41 -35 -104 -93 -140 -127 -66
-62 -80 -75 -160 -143 -25 -21 -67 -59 -95 -84 -53 -49 -87 -66 -93 -47 -2 6
-21 11 -43 11 -21 0 -39 5 -39 10 0 6 -13 10 -30 10 -16 0 -30 5 -30 10 0 6
-13 10 -30 10 -16 0 -30 5 -30 10 0 6 -5 10 -12 10 -10 0 -93 36 -140 61 -10
5 -25 9 -33 9 -8 0 -15 4 -15 8 0 5 -21 20 -47 33 -27 13 -50 26 -53 29 -3 3
-17 11 -31 18 -14 8 -37 23 -51 35 -14 12 -45 38 -69 59 -168 140 -171 144
-323 349 -50 69 -155 276 -182 359 -8 25 -19 54 -23 65 -8 19 -19 56 -39 140
-18 73 -31 169 -42 300 -7 87 -10 1581 -10 4470 1 3706 3 4361 15 4485 20 202
34 268 83 415 43 128 159 363 199 403 7 7 13 17 13 22 0 5 6 15 13 22 6 7 35
41 62 76 67 85 90 109 155 162 30 25 57 47 60 50 3 3 28 23 55 45 28 21 52 42
55 45 3 3 15 11 28 18 12 6 32 18 45 25 12 6 25 16 29 22 4 5 9 7 13 4 3 -3
-15 -44 -39 -90 -25 -46 -57 -124 -72 -174 -25 -83 -28 -104 -28 -255 0 -151
3 -173 27 -253 51 -167 121 -282 249 -409 127 -126 260 -199 428 -236 68 -15
436 -16 4235 -19 2773 -3 4192 0 4255 6 126 14 198 33 298 81 199 95 341 237
425 425 123 277 122 537 -5 819 -46 103 -100 178 -188 259 -34 32 -54 57 -46
57 9 0 16 -4 16 -10z m-5290 -669 c0 -421 1 -439 20 -463 11 -14 33 -28 50
-31 27 -6 29 -9 23 -39 -3 -18 -7 -35 -9 -36 -8 -10 -87 12 -110 31 -53 41
-54 50 -54 526 0 483 -5 447 58 450 l22 1 0 -439z m-2990 289 l0 -40 -140 0
-140 0 0 -405 0 -405 -45 0 -45 0 0 405 0 404 -142 3 -143 3 -3 38 -3 37 330
0 331 0 0 -40z m5010 -365 l0 -405 205 0 205 0 0 -40 0 -40 -250 0 -250 0 0
445 0 445 45 0 45 0 0 -405z m-4565 176 c49 -22 78 -53 102 -106 15 -34 18
-77 21 -287 l4 -247 -24 -6 c-115 -26 -238 -31 -318 -14 -152 33 -210 221
-101 330 54 55 127 73 259 66 l104 -5 -6 62 c-13 116 -60 156 -180 156 -38 0
-86 -5 -107 -12 -45 -13 -46 -13 -51 27 -3 26 1 31 32 42 57 19 218 16 265 -6z
m692 4 c21 -9 45 -23 55 -32 17 -15 23 -14 80 13 55 26 71 29 163 29 92 0 105
-2 139 -25 23 -16 47 -46 64 -80 27 -55 27 -55 30 -312 l4 -258 -40 0 -40 0
-4 243 c-4 270 -10 300 -70 337 -45 29 -163 24 -226 -9 l-42 -21 7 -73 c5 -39
8 -162 8 -272 l0 -200 -36 -3 -36 -3 -5 238 c-4 211 -7 243 -25 284 -29 66
-69 82 -187 77 -50 -2 -97 -7 -103 -11 -10 -6 -13 -77 -13 -298 l0 -290 -37 3
-38 3 -3 314 c-1 187 2 319 7 324 34 34 282 50 348 22z m1106 -1 c145 -49 230
-225 198 -410 -21 -120 -73 -199 -164 -246 -60 -31 -192 -32 -259 -1 -25 11
-49 19 -52 15 -3 -3 -6 -63 -6 -134 l0 -128 -35 0 -35 0 0 444 0 444 33 11
c56 17 69 19 173 20 68 1 115 -4 147 -15z m1313 -3 c51 -23 99 -81 113 -137 6
-25 11 -140 11 -273 0 -210 -1 -230 -17 -235 -52 -15 -195 -28 -258 -23 -106
8 -178 50 -204 120 -15 40 -14 132 3 172 8 18 33 47 55 63 58 42 125 56 244
49 l100 -5 -6 58 c-6 70 -22 106 -60 134 -25 18 -41 21 -125 20 -53 -1 -108
-3 -122 -5 -22 -4 -25 0 -28 28 -3 29 0 33 30 42 61 17 218 13 264 -8z m685 8
c50 -17 97 -55 118 -97 32 -62 41 -145 41 -364 l0 -208 -39 0 -39 0 -4 233
c-3 212 -6 236 -25 280 -18 39 -30 51 -69 69 -41 18 -61 20 -144 16 -53 -3
-102 -8 -108 -12 -9 -5 -12 -87 -12 -297 l0 -289 -35 0 -35 0 0 325 0 324 38
10 c20 5 46 12 57 14 42 10 223 7 256 -4z m1646 -13 c39 -19 58 -35 80 -73
l28 -48 3 -257 c4 -293 16 -261 -103 -278 -147 -21 -259 -6 -320 42 -64 50
-84 168 -42 249 17 33 37 52 78 74 52 29 59 30 182 30 l127 0 0 48 c0 58 -18
103 -54 137 -23 21 -39 25 -102 28 -41 3 -95 -1 -121 -7 -51 -13 -63 -6 -63
36 0 30 40 41 160 42 80 1 103 -3 147 -23z m1271 -2 c39 -19 59 -38 80 -72
l27 -47 3 -257 c4 -293 16 -261 -103 -278 -147 -21 -259 -6 -320 42 -64 50
-84 168 -42 249 17 33 37 52 78 74 52 29 59 30 182 30 l127 0 0 48 c0 58 -18
103 -54 137 -23 21 -39 25 -102 28 -41 3 -95 -1 -121 -7 -51 -13 -63 -6 -63
36 0 30 40 41 161 42 83 1 101 -2 147 -25z m657 14 c4 -4 4 -20 0 -36 l-6 -29
-97 5 c-57 2 -108 -1 -124 -7 l-28 -11 0 -295 0 -295 -40 0 -40 0 2 322 3 322
55 18 c41 13 82 17 162 15 58 -1 109 -5 113 -9z m-5125 -333 l0 -335 -35 0
-35 0 0 335 0 335 35 0 35 0 0 -335z m3580 203 c58 -182 168 -456 174 -438 13
35 86 306 117 433 l33 137 43 0 43 0 -7 -32 c-34 -181 -184 -667 -228 -742
-35 -59 -95 -112 -142 -125 -71 -20 -183 -9 -183 18 0 5 4 21 10 35 8 23 12
24 40 15 77 -27 168 18 205 101 21 47 25 33 -55 210 -45 99 -154 408 -174 493
-6 26 -5 27 37 27 l44 0 43 -132z m4029 -2963 c170 -140 316 -263 325 -273 15
-18 1 -33 -290 -298 -168 -153 -311 -280 -318 -282 -13 -3 -26 101 -26 205 0
29 -5 45 -17 52 -10 5 -67 7 -128 5 -60 -3 -765 -18 -1565 -35 -800 -16 -1621
-33 -1825 -38 -211 -5 -374 -5 -379 0 -11 10 -28 551 -18 561 4 3 246 11 537
17 292 6 726 16 965 21 479 11 1108 24 1880 40 278 6 511 13 518 15 9 3 12 39
12 135 0 86 4 130 11 130 6 0 149 -115 318 -255z m-10435 -7994 c12 -19 226
-649 226 -664 0 -21 -8 -21 -98 0 -63 15 -74 15 -87 2 -8 -8 -57 -178 -110
-379 -53 -201 -116 -441 -141 -535 -41 -154 -136 -510 -419 -1585 -53 -201
-132 -498 -175 -660 -188 -703 -270 -1019 -270 -1039 0 -11 11 -46 25 -77 96
-218 66 -524 -77 -761 -36 -61 -125 -154 -185 -196 -68 -47 -149 -70 -225 -64
-143 12 -234 98 -295 275 -21 64 -26 96 -26 192 -1 63 5 142 12 175 45 216
145 394 272 489 34 25 67 53 74 63 13 18 59 188 244 888 159 604 362 1373 451
1710 449 1690 425 1598 418 1617 -4 9 -35 22 -80 33 -104 25 -106 26 -72 63
42 45 516 462 525 462 4 0 10 -4 13 -9z m-411 -4319 c-284 -226 -384 -630
-242 -974 92 -223 295 -407 531 -480 l73 -23 3880 -3 c4235 -3 3943 -6 4094
53 81 31 212 120 278 188 111 112 194 267 223 412 6 33 14 71 16 84 l5 24 20
-21 c10 -12 19 -24 19 -28 0 -11 75 -159 83 -162 4 -2 7 -15 7 -28 0 -13 5
-24 10 -24 6 0 10 -6 10 -13 0 -7 9 -32 20 -55 11 -22 20 -50 20 -61 0 -11 4
-22 9 -25 5 -3 11 -18 14 -33 3 -16 13 -53 22 -83 34 -113 39 -132 66 -265 6
-27 13 -75 15 -105 3 -30 9 -64 14 -75 14 -29 20 -232 26 -801 l4 -501 -232
-6 c-128 -4 -272 -7 -320 -7 l-88 0 0 79 c0 92 1 91 -104 91 -66 0 -105 -12
-126 -40 -3 -4 -62 -53 -132 -108 -70 -56 -147 -121 -172 -145 l-46 -44 0
-105 c0 -86 3 -109 18 -126 16 -18 113 -94 172 -134 14 -10 72 -51 130 -93
l105 -75 85 2 85 3 3 83 3 82 128 0 c70 0 210 3 309 7 l182 6 0 -1409 -1
-1409 -29 68 c-65 151 -178 317 -294 433 -75 74 -187 164 -205 164 -6 0 -11 4
-11 9 0 5 -48 32 -107 61 -60 28 -115 56 -124 60 -9 5 -33 12 -53 15 -20 4
-39 11 -41 16 -3 4 -27 11 -53 15 -26 3 -53 12 -61 18 -18 14 -6486 21 -6589
7 -86 -12 -162 -29 -184 -41 -10 -6 -23 -10 -29 -10 -11 0 -47 -15 -125 -51
-23 -10 -46 -19 -53 -19 -6 0 -11 -4 -11 -10 0 -5 -5 -10 -11 -10 -11 0 -128
-67 -139 -79 -3 -4 -23 -19 -46 -34 -37 -25 -196 -182 -235 -233 -68 -87 -153
-235 -185 -319 -10 -27 -24 -61 -31 -75 -7 -14 -13 -35 -13 -47 0 -12 -4 -24
-9 -27 -5 -4 -12 -30 -16 -59 -4 -28 -12 -58 -19 -66 -8 -10 -12 -400 -14
-1468 l-3 -1453 -209 0 -210 0 0 55 0 55 -71 0 -71 0 6 58 c4 31 15 179 26
327 11 149 22 306 25 350 4 44 8 125 10 180 2 55 17 262 34 460 17 198 31 407
31 465 -1 58 13 258 30 445 16 187 35 423 40 525 6 102 21 304 33 450 l23 265
92 -4 c91 -3 92 -3 93 20 0 13 4 62 9 109 4 47 4 90 0 95 -4 6 -33 60 -65 120
-32 61 -65 121 -74 135 -10 14 -30 50 -45 80 -16 30 -34 62 -41 70 -6 8 -27
43 -46 78 -18 34 -37 62 -42 62 -4 0 -6 4 -2 10 10 17 -34 50 -67 50 -18 0
-63 3 -100 7 -50 4 -68 3 -68 -6 0 -7 -12 -24 -26 -39 -14 -15 -38 -45 -52
-67 -15 -22 -31 -45 -37 -51 -5 -6 -35 -46 -65 -89 -30 -42 -94 -130 -142
-194 -94 -126 -108 -161 -108 -277 0 -60 -5 -57 124 -68 32 -3 60 -6 62 -8 2
-2 -8 -132 -21 -288 -13 -157 -26 -359 -29 -450 -3 -91 -17 -295 -31 -455 -13
-159 -27 -346 -30 -415 -7 -143 -38 -570 -61 -838 -9 -101 -14 -209 -12 -240
3 -31 -10 -232 -29 -447 -18 -214 -33 -398 -33 -407 0 -16 -10 -18 -78 -18
-47 0 -83 -5 -90 -12 -14 -14 -17 -864 -3 -886 9 -15 469 -24 744 -14 l157 5
0 44 0 43 210 0 210 0 1 -1527 c0 -857 4 -1550 9 -1578 24 -130 34 -175 42
-175 4 0 8 -10 8 -22 1 -13 9 -41 20 -63 11 -22 19 -48 20 -57 0 -9 4 -19 9
-22 5 -3 11 -16 14 -28 8 -32 83 -162 138 -238 114 -159 318 -328 510 -421 66
-32 209 -81 294 -100 50 -12 604 -14 3325 -14 3140 0 3268 1 3335 18 184 49
353 128 498 234 26 19 47 31 47 26 -1 -28 -299 -353 -325 -353 -3 0 -12 -6
-19 -12 -27 -27 -62 -55 -76 -61 -8 -4 -28 -16 -45 -27 -16 -11 -38 -23 -47
-26 -10 -4 -18 -10 -18 -15 0 -5 -9 -9 -19 -9 -11 0 -26 -7 -35 -15 -8 -8 -20
-15 -27 -15 -19 0 -89 -33 -89 -42 0 -4 -15 -8 -34 -8 -19 0 -38 -5 -41 -10
-3 -6 -23 -10 -43 -10 -21 0 -47 -6 -58 -14 -12 -9 -60 -17 -120 -21 -149 -10
-8073 -8 -8194 1 -58 5 -115 15 -127 22 -12 6 -35 12 -52 12 -16 0 -33 5 -36
10 -3 6 -20 10 -36 10 -17 0 -37 7 -45 15 -9 8 -24 15 -34 15 -10 0 -22 5 -25
10 -3 6 -13 10 -21 10 -9 0 -22 7 -30 15 -9 8 -24 15 -35 15 -10 0 -19 4 -19
9 0 5 -8 11 -17 15 -10 3 -31 15 -48 26 -16 11 -37 23 -45 27 -8 4 -26 17 -39
29 -13 12 -35 28 -50 36 -31 15 -155 138 -226 223 -27 33 -57 67 -65 77 -9 9
-37 53 -63 97 -27 45 -54 86 -60 93 -21 22 -147 286 -147 308 0 5 -4 10 -10
10 -5 0 -10 8 -10 18 0 20 -23 89 -33 98 -4 4 -7 16 -7 26 0 10 -4 26 -9 36
-14 29 -31 87 -31 110 0 11 -5 24 -10 27 -5 3 -10 21 -10 40 0 19 -4 37 -10
40 -5 3 -10 28 -10 54 0 26 -4 51 -9 56 -5 6 -15 105 -23 220 -20 313 -19
10891 1 11200 7 116 17 212 22 213 5 2 9 26 9 52 0 27 4 51 9 54 5 3 11 23 15
43 13 88 19 113 27 119 5 3 9 18 9 35 0 16 5 29 10 29 6 0 10 9 10 20 0 11 4
28 9 38 5 9 14 35 21 57 6 22 19 56 27 75 8 19 22 51 30 70 25 59 36 80 40 76
4 -3 -12 -83 -33 -166 -18 -73 -12 -253 11 -345 10 -38 21 -72 25 -75 4 -3 11
-19 17 -36 15 -43 82 -134 99 -134 8 0 14 -6 14 -13 0 -19 29 -30 206 -82 120
-35 160 -42 175 -35 11 6 25 10 32 8 15 -3 88 21 102 33 5 5 16 9 25 9 26 0
167 137 215 209 52 79 65 115 139 381 70 253 67 240 66 328 -1 111 -20 199
-61 288 -22 45 -22 47 -5 132 9 48 38 161 64 252 l48 165 52 3 c29 2 52 7 52
13 0 5 72 9 176 9 l176 0 -49 -38z m3848 -479 l0 -268 113 118 112 117 53 0
53 0 -127 -135 -128 -135 68 -68 c37 -37 101 -111 142 -164 l74 -98 -44 0
c-43 0 -46 2 -87 61 -47 67 -173 199 -208 218 l-22 12 0 -146 0 -145 -40 0
-40 0 0 444 c0 477 -3 454 53 455 l27 1 1 -267z m-3231 -193 l0 -360 185 0
185 0 0 -40 0 -40 -225 0 -225 0 0 400 0 400 40 0 40 0 0 -360z m4281 340 c69
-21 117 -58 144 -111 23 -44 31 -146 15 -193 -16 -49 -63 -102 -112 -127 -41
-21 -46 -30 -24 -49 20 -16 126 -171 166 -243 l33 -58 -43 3 c-42 3 -43 4
-100 95 -32 51 -79 119 -105 153 l-46 60 -105 0 -104 0 0 -155 0 -155 -40 0
-40 0 2 393 3 392 35 6 c19 4 85 7 146 8 86 1 127 -4 175 -19z m-1711 -85 l0
-95 116 0 115 0 -3 -32 -3 -33 -112 -3 -113 -3 0 -182 c0 -199 9 -239 60 -264
34 -17 93 -16 137 2 20 8 38 13 40 11 3 -3 6 -19 6 -37 2 -28 -2 -33 -33 -45
-102 -37 -228 -4 -265 71 -19 37 -20 63 -23 367 -3 359 -7 334 56 337 21 1 22
-2 22 -94z m-1730 -106 c58 -26 96 -62 128 -124 25 -45 27 -60 27 -160 0 -103
-2 -113 -30 -165 -110 -199 -391 -185 -487 25 -18 40 -22 68 -22 140 0 102 21
165 77 224 74 78 209 104 307 60z m705 7 l50 -11 0 -336 0 -335 -27 -41 c-42
-64 -100 -87 -228 -91 -133 -4 -196 12 -192 49 5 46 8 49 44 36 18 -6 78 -12
133 -12 148 0 185 27 201 145 7 50 6 53 -12 45 -94 -39 -170 -45 -246 -19 -57
19 -114 73 -142 133 -31 68 -30 217 2 286 36 78 96 133 172 156 38 11 188 9
245 -5z m727 2 c37 -11 39 -14 34 -42 -8 -40 -10 -41 -55 -28 -108 33 -211 0
-211 -68 0 -37 38 -69 149 -125 47 -24 100 -57 116 -75 27 -29 30 -37 30 -100
0 -62 -3 -72 -29 -99 -16 -17 -49 -37 -74 -46 -54 -18 -180 -19 -237 -1 -35
11 -40 15 -38 41 3 42 13 46 67 30 63 -19 137 -19 183 0 45 19 53 30 53 73 0
43 -22 63 -137 121 -125 63 -155 93 -161 163 -5 67 23 113 88 146 51 25 155
30 222 10z m2661 1 c90 -25 148 -111 155 -231 l5 -78 -217 0 -216 0 0 -22 c0
-81 62 -167 135 -187 55 -15 133 -14 190 4 27 8 50 13 51 12 1 -1 5 -16 8 -34
7 -31 7 -32 -45 -47 -67 -20 -171 -20 -238 0 -74 22 -144 91 -165 163 -20 69
-21 172 -1 239 44 146 187 223 338 181z m725 -9 l32 -12 0 -308 c0 -251 -3
-316 -15 -351 -33 -93 -98 -131 -236 -137 -106 -5 -209 12 -209 33 0 8 4 25 9
38 9 24 10 24 63 10 64 -17 191 -13 232 7 45 23 69 63 74 124 l4 55 -51 -20
c-59 -22 -148 -24 -204 -5 -100 36 -157 122 -165 248 -10 164 51 272 183 325
37 16 236 11 283 -7z m480 14 c22 -6 28 -27 16 -57 -4 -12 -21 -14 -87 -10
-47 3 -94 0 -109 -6 l-28 -11 0 -260 0 -260 -40 0 -40 0 0 289 0 288 53 16
c52 15 193 22 235 11z m457 -18 c28 -13 58 -32 67 -42 31 -36 57 -110 64 -182
l7 -72 -222 0 -222 0 7 -37 c9 -53 31 -104 56 -131 42 -44 164 -64 253 -41 69
17 70 17 70 -21 0 -32 -3 -35 -45 -48 -28 -8 -78 -12 -135 -10 -114 5 -183 37
-231 110 -82 123 -64 328 39 430 69 69 198 88 292 44z m545 11 c31 -11 35 -16
31 -42 -5 -43 -7 -44 -48 -29 -88 31 -201 8 -218 -45 -13 -42 16 -74 115 -126
52 -27 109 -60 126 -72 43 -31 67 -85 62 -138 -11 -94 -74 -137 -213 -143
-110 -4 -169 12 -173 49 -4 43 8 50 63 33 62 -19 173 -14 210 10 13 9 28 28
31 43 12 47 -14 74 -131 135 -62 32 -122 71 -137 89 -40 47 -45 99 -16 157 33
66 86 92 188 91 41 0 91 -6 110 -12z m-5300 -297 l0 -300 -40 0 -40 0 0 300 0
300 40 0 40 0 0 -300z m1140 0 l0 -300 -40 0 -40 0 0 300 0 300 40 0 40 0 0
-300z m4450 0 l0 -300 -35 0 -35 0 0 300 0 300 35 0 35 0 0 -300z m434 -2295
c9 -7 379 -3 1117 12 607 12 1147 22 1200 22 l96 1 5 -152 c3 -84 3 -156 -1
-161 -4 -4 -546 -18 -1204 -31 -659 -12 -1200 -26 -1204 -30 -4 -4 -6 -38 -4
-77 1 -38 -1 -69 -6 -69 -15 0 -398 295 -398 306 0 7 86 83 190 169 l190 158
3 -69 c2 -42 8 -73 16 -79z m-8456 -2103 c210 -374 262 -471 262 -486 0 -16
-7 -17 -73 -11 -56 5 -76 4 -84 -7 -6 -7 -22 -170 -37 -388 -40 -573 -101
-1429 -156 -2215 -28 -390 -55 -786 -61 -880 -6 -93 -16 -176 -22 -183 -7 -9
-52 -12 -181 -10 l-171 3 3 105 c1 58 20 359 42 670 22 311 58 822 80 1135 22
314 56 793 75 1065 42 592 47 723 25 727 -8 1 -46 5 -83 8 l-68 7 20 31 c33
52 374 507 380 507 3 0 26 -35 49 -78z m8067 -450 c109 -14 240 -50 325 -91
259 -122 462 -319 576 -561 47 -101 54 -118 54 -133 0 -9 4 -18 9 -21 5 -3 11
-23 14 -43 3 -21 10 -67 15 -103 27 -166 32 -276 32 -749 0 -275 -2 -501 -3
-501 -7 0 -302 82 -305 85 -2 1 5 32 14 69 9 36 14 71 11 79 -2 7 -45 23 -94
36 l-90 23 -59 -27 c-68 -31 -137 -64 -249 -122 -44 -22 -101 -50 -127 -61
-50 -23 -52 -26 -83 -150 l-16 -63 148 -197 c154 -206 160 -214 181 -237 14
-15 92 -41 153 -51 l37 -6 15 53 c9 30 19 67 23 82 8 34 -14 36 227 -27 98
-25 187 -46 197 -46 20 0 20 -18 20 -1860 l0 -1860 -110 0 -110 0 0 80 0 80
-103 0 -104 0 -114 -98 c-63 -54 -120 -106 -127 -114 -9 -11 -12 -42 -10 -95
l3 -80 165 145 165 145 7 -39 c4 -21 7 -58 7 -81 l1 -43 52 0 c88 0 1982 39
2179 44 l186 6 7 -92 c3 -50 6 -126 6 -169 l0 -77 -82 -6 c-46 -3 -585 -15
-1198 -26 -613 -12 -1121 -23 -1127 -25 -9 -3 -13 -28 -13 -80 0 -41 -3 -75
-7 -75 -5 0 -84 61 -178 135 -187 148 -177 146 -189 43 -9 -67 -19 -55 169
-201 l130 -102 72 -4 c40 -2 84 0 98 3 24 6 25 9 25 91 l0 85 100 0 100 0 0
-185 c0 -101 -4 -215 -10 -252 -5 -38 -14 -102 -19 -143 -19 -145 -51 -250
-110 -360 -20 -37 -36 -65 -41 -70 -3 -3 -21 -27 -39 -55 -41 -59 -107 -141
-137 -170 -35 -33 -115 -99 -133 -109 -9 -5 -18 -12 -21 -16 -11 -13 -161
-100 -185 -106 -14 -3 -25 -10 -25 -15 0 -5 -10 -9 -22 -9 -13 0 -36 -7 -52
-15 -16 -8 -47 -18 -70 -21 -22 -4 -46 -11 -52 -16 -6 -4 -62 -11 -123 -15
-61 -3 -114 -10 -117 -15 -7 -11 -6091 -11 -6098 0 -3 5 -58 12 -122 15 -64 4
-121 10 -128 15 -6 5 -28 12 -48 16 -20 4 -50 13 -65 21 -15 8 -38 15 -50 15
-13 0 -23 5 -23 10 0 6 -6 10 -12 10 -17 0 -159 71 -177 88 -8 7 -25 21 -39
30 -68 45 -185 161 -242 242 -14 19 -35 46 -48 60 -12 14 -25 35 -28 48 -4 12
-10 22 -14 22 -4 0 -10 8 -14 18 -3 9 -10 24 -15 32 -17 26 -51 108 -51 124 0
9 -4 16 -8 16 -17 0 -45 143 -72 356 -6 50 -10 607 -10 1507 l0 1427 259 0
c163 0 262 4 266 10 4 7 268 10 761 10 l754 0 0 -50 0 -50 110 0 110 0 0 -232
c0 -128 3 -290 7 -360 l6 -128 56 0 56 0 -6 357 c-3 197 -4 361 -2 366 5 9
230 9 237 -1 2 -4 8 -168 12 -365 l7 -357 53 0 54 0 0 360 0 360 100 0 100 0
-2 458 -3 457 -107 3 -108 3 0 239 0 240 -64 0 -64 0 1 -252 2 -253 -109 -3
c-60 -1 -113 1 -117 5 -5 5 -11 120 -15 256 l-7 247 -54 0 -53 0 0 -240 0
-239 -97 -3 -98 -3 -3 -52 -3 -53 -555 0 c-363 0 -554 -3 -554 -10 0 -7 -162
-10 -465 -10 l-465 0 3 1358 c3 1169 6 1371 20 1457 19 122 47 239 58 243 5 2
9 8 9 13 0 12 34 90 57 134 19 35 104 168 113 175 3 3 23 27 45 54 31 39 142
141 200 184 63 47 202 117 300 149 115 39 131 42 234 53 58 5 107 12 109 15 3
3 1390 4 3081 2 2280 -2 3099 -6 3166 -15z m601 -2069 c-22 -127 -23 -120 20
-132 22 -5 545 -137 1164 -292 619 -155 1129 -286 1134 -290 10 -8 -57 -306
-71 -320 -4 -4 -525 123 -1158 282 -632 159 -1160 289 -1172 289 -17 0 -23 -9
-33 -52 -18 -80 -21 -88 -30 -88 -10 0 -314 409 -308 415 7 7 443 224 452 224
5 1 6 -16 2 -36z m-5158 -2082 c1 -184 -1 -338 -5 -342 -5 -4 -156 -9 -338
-10 l-330 -4 -5 45 -5 45 -1414 3 c-1002 1 -1418 -1 -1427 -9 -7 -6 -14 -29
-16 -52 l-3 -42 -335 0 -335 0 0 345 0 345 338 3 337 2 0 -44 c0 -31 5 -46 16
-50 21 -8 808 -8 1932 1 l902 6 0 42 c0 23 3 45 7 48 4 4 158 6 342 5 l336 -3
3 -334z"/>
<path d="M2440 27020 l0 -880 80 0 80 0 0 880 0 880 -80 0 -80 0 0 -880z"/>
<path d="M7410 27859 c-25 -5 -55 -11 -67 -14 l-23 -5 0 -659 c0 -727 4 -779
59 -890 52 -103 130 -153 267 -172 113 -16 250 5 348 53 l43 21 -18 59 c-10
33 -20 62 -22 64 -2 2 -30 -8 -63 -22 -46 -21 -80 -28 -154 -31 -156 -8 -224
24 -271 129 l-24 53 0 435 0 435 248 3 247 2 0 65 0 65 -250 0 -250 0 0 210
c0 162 -3 210 -12 209 -7 -1 -33 -5 -58 -10z"/>
<path d="M3298 27470 c-68 -8 -193 -32 -260 -51 l-38 -10 0 -634 0 -635 80 0
80 0 2 583 3 582 60 13 c33 8 127 14 210 15 185 1 238 -15 308 -93 90 -100
106 -222 107 -782 l0 -318 76 0 75 0 -4 463 c-4 500 -6 523 -62 641 -57 120
-174 204 -315 226 -74 11 -223 11 -322 0z"/>
<path d="M4684 27469 c-40 -5 -112 -20 -160 -32 l-89 -22 -3 -872 -2 -873 75
0 75 0 0 270 c0 178 3 270 10 270 6 0 37 -13 68 -29 97 -49 166 -65 282 -65
126 0 216 24 305 82 122 79 214 220 251 387 25 110 25 323 0 420 -57 221 -197
379 -394 442 -63 21 -102 26 -212 28 -74 2 -167 -1 -206 -6z m297 -139 c248
-47 381 -258 366 -580 -10 -218 -72 -355 -198 -435 -130 -84 -376 -68 -524 33
l-40 28 -3 453 c-1 310 1 458 8 467 10 11 61 22 170 38 54 8 170 5 221 -4z"/>
<path d="M5882 27008 c4 -420 5 -448 27 -535 43 -176 141 -288 294 -335 61
-19 94 -22 217 -22 151 1 225 9 379 45 l91 21 0 634 0 634 -80 0 -80 0 0 -579
0 -580 -57 -13 c-35 -7 -125 -13 -223 -13 -147 0 -170 2 -211 21 -105 49 -157
128 -184 279 -12 69 -15 174 -15 486 l0 399 -81 0 -81 0 4 -442z"/>
<path d="M5400 22919 c-25 -5 -55 -11 -68 -14 l-23 -6 4 -692 c3 -613 5 -699
20 -756 38 -140 105 -218 217 -251 92 -26 164 -32 249 -20 72 10 206 51 222
67 8 8 -17 111 -30 126 -4 4 -34 -5 -66 -19 -45 -21 -79 -28 -150 -32 -165 -8
-240 31 -281 150 -17 48 -19 89 -19 478 l0 425 248 3 247 2 0 65 0 65 -250 0
-250 0 0 210 c0 162 -3 210 -12 209 -7 -1 -33 -5 -58 -10z"/>
<path d="M9265 22916 l-60 -12 -3 -659 c-3 -688 0 -756 39 -861 26 -69 88
-137 152 -168 62 -31 187 -49 272 -40 68 7 201 46 229 67 19 14 19 17 3 72 -9
32 -18 59 -20 61 -1 2 -32 -9 -67 -24 -58 -24 -77 -27 -180 -27 -102 0 -120 3
-155 23 -51 29 -82 74 -103 149 -14 49 -16 121 -17 468 l0 410 253 3 252 2 0
65 0 65 -252 2 -253 3 -3 208 c-2 156 -5 207 -15 206 -6 -1 -39 -7 -72 -13z"/>
<path d="M2803 22525 c-199 -43 -359 -210 -425 -442 -29 -103 -32 -330 -5
-438 67 -269 249 -434 518 -471 54 -7 187 11 244 34 130 51 242 157 305 287
52 107 70 179 77 310 16 305 -103 557 -317 669 -118 62 -261 81 -397 51z m301
-164 c161 -79 246 -253 246 -506 0 -189 -46 -329 -140 -425 -94 -96 -245 -133
-386 -95 -107 29 -181 94 -239 210 -45 89 -65 184 -65 308 0 241 89 431 236
503 77 38 108 44 202 40 68 -3 94 -9 146 -35z"/>
<path d="M6590 22534 c-59 -7 -182 -33 -238 -49 l-52 -16 0 -869 0 -870 80 0
80 0 0 268 c0 148 2 271 5 274 3 3 34 -9 68 -27 116 -62 249 -84 377 -64 239
37 398 193 461 454 30 124 30 326 0 438 -58 218 -185 363 -379 430 -79 27
-100 31 -227 33 -77 1 -156 0 -175 -2z m293 -149 c168 -44 275 -154 324 -337
21 -78 23 -295 4 -383 -33 -148 -107 -252 -220 -308 -62 -30 -71 -32 -181 -32
-131 0 -213 22 -298 78 l-47 32 -3 463 c-2 397 0 463 12 468 83 32 318 43 409
19z"/>
<path d="M3873 22073 c4 -343 9 -454 21 -512 48 -227 185 -356 405 -382 118
-14 313 1 461 36 58 14 108 25 113 25 4 0 7 286 7 635 l0 635 -80 0 -80 0 0
-579 0 -579 -52 -12 c-29 -7 -114 -14 -188 -17 -265 -11 -369 51 -424 252 -18
63 -20 114 -24 503 l-4 432 -80 0 -80 0 5 -437z"/>
<path d="M7752 22058 c4 -427 5 -457 26 -531 51 -183 151 -290 312 -334 49
-13 100 -17 210 -16 147 1 206 8 363 44 l87 21 0 634 0 634 -75 0 -75 0 -2
-577 -3 -578 -50 -13 c-73 -19 -308 -27 -377 -13 -114 24 -193 102 -231 227
-19 65 -21 97 -25 512 l-3 442 -80 0 -80 0 3 -452z"/>
<path d="M3165 30391 c-60 -27 -78 -53 -79 -110 -1 -56 22 -96 70 -121 31 -16
203 -21 237 -8 15 6 17 22 17 122 l0 114 -31 11 c-51 18 -168 13 -214 -8z"/>
<path d="M4910 30672 l-25 -8 -3 -214 c-1 -118 0 -225 3 -236 8 -33 96 -68
175 -69 125 0 192 66 213 208 19 132 -26 250 -114 302 -26 15 -55 20 -129 22
-52 1 -106 -1 -120 -5z"/>
<path d="M6273 30391 c-53 -25 -75 -58 -75 -116 0 -103 82 -146 248 -130 l74
7 0 118 c0 84 -4 121 -12 127 -7 4 -53 9 -103 11 -73 2 -98 -1 -132 -17z"/>
<path d="M8593 30391 c-48 -22 -73 -63 -73 -116 0 -102 82 -146 246 -130 l74
7 0 118 c0 84 -4 121 -12 127 -7 4 -53 9 -103 11 -73 2 -98 -1 -132 -17z"/>
<path d="M9889 30401 c-69 -22 -99 -61 -99 -126 0 -102 82 -146 246 -130 l74
7 0 118 c0 83 -4 121 -12 126 -18 11 -178 15 -209 5z"/>
<path d="M4128 12393 c-16 -4 -18 -21 -18 -177 0 -95 -2 -175 -6 -178 -3 -3
-24 4 -47 15 -27 13 -70 22 -120 25 -71 4 -82 2 -141 -27 -68 -33 -103 -71
-139 -149 -18 -39 -22 -65 -22 -162 0 -110 1 -118 33 -182 38 -78 83 -119 162
-149 48 -18 69 -20 165 -16 61 3 127 11 148 17 l37 11 0 489 c0 535 4 498 -52
483z m-73 -413 l50 -25 3 -234 c1 -137 -2 -239 -7 -244 -5 -5 -50 -12 -100
-15 -104 -6 -160 10 -217 60 -91 80 -101 306 -19 415 59 76 185 95 290 43z"/>
<path d="M5108 12389 c-17 -9 -18 -40 -18 -419 0 -255 4 -428 11 -459 12 -59
50 -96 105 -107 40 -7 40 -7 49 27 6 23 2 27 -34 41 -27 11 -44 25 -51 43 -6
16 -10 192 -10 456 0 402 -1 429 -17 429 -10 0 -26 -5 -35 -11z"/>
<path d="M8078 12389 c-16 -9 -18 -29 -18 -183 l0 -174 -62 25 c-52 22 -73 25
-137 21 -91 -6 -144 -30 -195 -89 -91 -107 -109 -304 -41 -440 33 -65 106
-126 173 -145 62 -18 226 -15 295 6 l37 11 0 489 c0 460 -1 490 -17 490 -10 0
-26 -5 -35 -11z m-65 -410 l47 -23 0 -238 c0 -218 -2 -239 -17 -246 -10 -4
-63 -7 -118 -7 -108 0 -136 9 -189 62 -52 51 -71 107 -71 213 0 75 5 105 21
140 24 53 71 100 116 117 49 19 154 10 211 -18z"/>
<path d="M8663 12393 c-10 -4 -13 -112 -13 -494 l0 -489 30 0 30 0 0 154 c0
96 4 157 10 161 25 15 259 -213 307 -300 7 -12 21 -15 57 -13 l48 3 -46 63
c-49 66 -185 208 -251 261 l-40 32 154 150 154 149 -46 0 c-44 0 -47 -2 -188
-139 -79 -77 -147 -137 -151 -135 -5 3 -8 140 -8 305 0 278 -1 299 -17 298
-10 0 -24 -3 -30 -6z"/>
<path d="M5840 12299 c-47 -3 -95 -9 -107 -13 l-23 -7 0 -435 0 -434 40 0 40
0 2 173 3 172 130 7 c142 7 206 22 266 64 89 61 119 217 64 329 -56 115 -187
160 -415 144z m199 -80 c61 -13 108 -43 139 -89 21 -31 23 -44 20 -110 -4 -91
-21 -119 -96 -156 -49 -25 -64 -27 -180 -28 l-127 -1 -3 192 c-2 176 -1 192
15 196 35 9 183 7 232 -4z"/>
<path d="M1786 12268 c-10 -61 -28 -323 -52 -740 l-6 -118 39 0 40 0 7 158
c12 298 28 547 36 561 6 10 20 -9 48 -65 44 -88 217 -460 232 -499 8 -20 16
-25 44 -25 l35 0 147 300 c81 165 151 300 155 300 13 0 39 -413 39 -632 l0
-98 42 0 41 0 -6 163 c-8 176 -35 579 -45 667 -6 50 -9 55 -34 58 -23 3 -32
-4 -57 -45 -37 -58 -174 -333 -247 -493 -29 -63 -56 -116 -61 -117 -5 -2 -35
56 -67 129 -80 181 -235 496 -253 514 -8 7 -27 14 -43 14 -25 0 -30 -5 -34
-32z"/>
<path d="M3085 12064 c-181 -64 -254 -345 -141 -538 109 -187 386 -180 488 10
79 149 56 357 -51 464 -75 75 -194 100 -296 64z m208 -84 c140 -96 144 -390 5
-486 -36 -25 -50 -29 -113 -29 -60 0 -77 4 -107 25 -76 52 -114 150 -106 274
7 112 56 197 133 233 47 21 145 12 188 -17z"/>
<path d="M4555 12064 c-63 -22 -111 -68 -147 -142 -32 -64 -33 -71 -33 -187 0
-105 3 -127 24 -173 31 -69 98 -128 169 -148 61 -18 187 -15 254 5 35 11 37
14 31 44 -3 18 -7 33 -7 34 -1 1 -24 -4 -51 -12 -57 -18 -144 -19 -200 -4 -80
22 -145 120 -145 218 l0 31 231 0 232 0 -6 79 c-5 83 -32 158 -70 200 -12 13
-44 34 -72 47 -58 28 -146 31 -210 8z m162 -55 c62 -23 110 -95 115 -171 l3
-43 -194 -3 -194 -2 7 41 c8 50 36 107 68 136 50 47 134 65 195 42z"/>
<path d="M6505 12062 l-60 -17 -3 -318 -2 -317 35 0 35 0 0 295 0 294 42 12
c24 6 81 9 128 7 l85 -3 3 26 c3 22 -2 27 -29 33 -56 11 -172 5 -234 -12z"/>
<path d="M7086 12066 c-81 -30 -149 -111 -177 -210 -17 -61 -13 -200 7 -264
25 -78 100 -154 174 -176 68 -20 171 -20 238 -1 47 14 52 19 52 44 0 39 -5 41
-57 25 -55 -17 -143 -18 -196 -3 -79 22 -142 105 -149 199 l-3 45 234 3 234 2
-6 73 c-16 181 -90 266 -241 274 -46 2 -85 -2 -110 -11z m192 -73 c15 -11 37
-34 49 -52 23 -33 47 -126 37 -142 -3 -5 -90 -9 -195 -9 l-189 0 0 29 c0 64
54 146 119 182 47 25 139 22 179 -8z"/>
<path d="M9327 12065 c-74 -26 -117 -84 -117 -160 0 -89 41 -132 180 -191 50
-21 105 -50 121 -64 56 -47 48 -145 -15 -177 -47 -24 -152 -28 -220 -9 -32 10
-60 16 -61 14 -2 -2 -6 -15 -10 -30 -7 -26 -4 -28 50 -44 86 -24 225 -17 284
16 24 14 53 37 64 51 28 38 33 110 12 164 -20 54 -60 84 -189 141 -106 47
-136 78 -136 138 0 47 23 76 73 95 40 16 127 14 176 -4 41 -14 42 -14 51 11 6
14 8 29 5 34 -18 28 -202 39 -268 15z"/>
<path d="M8360 11740 l0 -330 35 0 35 0 0 330 0 330 -35 0 -35 0 0 -330z"/>
<path d="M9790 11740 l0 -330 35 0 35 0 0 330 0 330 -35 0 -35 0 0 -330z"/>
<path d="M6998 14944 c-5 -4 -8 -79 -8 -167 l0 -160 124 5 c182 8 235 41 243
150 5 69 -19 114 -78 148 -38 22 -59 25 -159 28 -63 2 -118 0 -122 -4z"/>
<path d="M3633 14751 c-110 -51 -147 -253 -69 -372 61 -91 208 -105 283 -27
47 48 64 98 64 185 0 93 -31 165 -87 202 -49 34 -133 39 -191 12z"/>
<path d="M4298 14757 c-40 -19 -87 -67 -105 -107 -25 -55 -23 -185 5 -236 54
-104 167 -133 284 -73 l38 19 0 195 c0 143 -3 196 -12 201 -22 14 -181 14
-210 1z"/>
<path d="M7752 14749 c-48 -24 -88 -76 -98 -127 l-6 -32 177 0 178 0 -7 43
c-17 112 -138 170 -244 116z"/>
<path d="M8370 14748 c-79 -40 -116 -123 -108 -240 7 -89 41 -148 103 -178 55
-27 129 -24 190 6 l40 19 3 201 2 201 -37 7 c-78 12 -147 7 -193 -16z"/>
<path d="M9395 14755 c-62 -34 -105 -93 -105 -145 0 -19 6 -20 175 -20 l175 0
-7 33 c-9 53 -33 96 -66 119 -40 29 -130 35 -172 13z"/>
<path d="M8828 8363 c-16 -4 -18 -21 -18 -177 0 -95 -3 -175 -6 -178 -3 -4
-26 3 -52 14 -63 28 -155 34 -223 15 -108 -32 -178 -124 -199 -263 -28 -184
55 -351 200 -399 42 -14 74 -16 164 -12 61 3 128 11 149 18 l37 12 0 489 c0
533 4 496 -52 481z m-78 -413 c25 -12 48 -28 52 -34 11 -16 10 -448 -1 -465
-12 -19 -172 -27 -229 -12 -57 16 -115 69 -142 133 -19 45 -22 65 -18 152 6
137 39 201 128 241 49 22 152 15 210 -15z"/>
<path d="M9808 8363 c-17 -4 -18 -34 -18 -441 0 -411 2 -440 20 -480 20 -45
63 -72 114 -72 19 0 25 6 28 30 4 25 1 30 -24 35 -15 4 -37 18 -48 32 -19 25
-20 40 -20 464 0 479 4 447 -52 432z"/>
<path d="M4150 8225 l0 -34 143 -3 142 -3 3 -402 2 -403 40 0 40 0 0 405 0
405 140 0 140 0 0 35 0 35 -325 0 -325 0 0 -35z"/>
<path d="M6480 8243 c0 -10 -4 -65 -10 -123 -14 -149 -40 -588 -40 -671 l0
-69 38 0 39 0 7 198 c8 254 26 515 35 525 8 8 160 -302 242 -490 l44 -102 38
-1 c37 0 39 2 63 56 59 133 265 544 273 544 4 0 11 -46 15 -102 9 -130 25
-506 26 -575 l0 -53 40 0 c37 0 40 2 40 28 0 49 -28 513 -41 685 l-13 167 -33
0 c-27 0 -37 -7 -57 -39 -30 -47 -185 -359 -251 -504 -27 -59 -53 -106 -57
-105 -4 2 -54 105 -111 229 -57 125 -126 269 -154 320 -50 94 -50 94 -91 97
-35 3 -42 0 -42 -15z"/>
<path d="M5100 8041 c-152 -47 -240 -233 -200 -426 34 -165 117 -235 286 -243
114 -5 194 16 194 51 0 41 -12 47 -55 32 -55 -19 -170 -18 -225 3 -58 23 -105
83 -120 157 -6 31 -9 63 -6 70 4 12 47 15 233 17 l228 3 -4 70 c-9 176 -106
277 -263 274 -24 0 -54 -4 -68 -8z m160 -73 c54 -27 88 -83 97 -157 l6 -51
-191 0 c-105 0 -193 4 -196 9 -12 18 26 114 60 150 65 73 143 90 224 49z"/>
<path d="M5706 8038 c-58 -16 -113 -76 -122 -133 -15 -105 29 -159 180 -222
49 -21 104 -52 123 -69 28 -27 33 -38 33 -76 0 -57 -25 -90 -78 -106 -54 -16
-139 -15 -198 3 -51 15 -58 13 -68 -21 -6 -19 0 -24 40 -38 62 -21 205 -21
266 -1 25 9 60 31 78 50 30 31 35 43 38 99 7 108 -26 145 -188 216 -112 48
-150 83 -150 138 0 21 7 48 16 61 35 49 134 65 229 36 27 -8 51 -13 52 -11 2
2 5 16 6 32 2 24 -3 29 -38 40 -48 15 -165 16 -219 2z"/>
<path d="M7787 8036 c-84 -31 -156 -111 -183 -204 -23 -79 -16 -230 15 -297
84 -188 319 -236 461 -94 159 159 118 483 -74 581 -52 27 -165 34 -219 14z
m178 -75 c51 -23 78 -54 106 -116 45 -102 34 -251 -25 -328 -44 -57 -98 -87
-161 -87 -95 0 -166 53 -200 149 -19 54 -20 183 -1 243 38 129 166 192 281
139z"/>
<path d="M9270 8041 c-148 -45 -232 -214 -202 -407 16 -101 53 -168 116 -211
65 -45 115 -56 221 -51 108 6 145 20 145 58 0 37 -5 40 -57 24 -91 -28 -203
-15 -267 29 -35 25 -73 107 -78 167 l-3 45 234 3 234 2 -6 76 c-15 174 -112
276 -261 273 -28 0 -62 -4 -76 -8z m160 -73 c35 -18 51 -35 73 -77 15 -31 27
-71 27 -93 l0 -38 -190 0 -190 0 0 30 c0 97 102 199 200 200 20 0 56 -10 80
-22z"/>
<path d="M5657 3543 c-17 -4 -18 -26 -15 -353 l3 -348 24 -26 c13 -14 39 -29
58 -32 38 -7 38 -7 47 24 5 16 3 22 -7 22 -8 0 -26 9 -41 21 l-26 20 0 340 c0
265 -3 339 -12 338 -7 -1 -21 -3 -31 -6z"/>
<path d="M6968 3543 c-17 -4 -18 -31 -18 -384 l0 -379 30 0 30 0 0 224 0 224
50 11 c105 23 160 5 190 -61 17 -37 20 -66 20 -220 l0 -178 36 0 37 0 -5 189
c-6 217 -18 261 -86 303 -40 25 -132 31 -204 14 l-38 -8 0 136 c0 141 0 140
-42 129z"/>
<path d="M9508 3543 c-16 -4 -18 -19 -18 -137 0 -73 -3 -135 -6 -139 -4 -3
-21 1 -38 11 -46 24 -161 23 -205 -3 -86 -51 -134 -173 -113 -288 16 -87 55
-145 121 -179 45 -24 65 -28 133 -28 43 0 99 5 124 11 l44 11 0 374 c0 293 -3
374 -12 373 -7 -1 -21 -3 -30 -6z m-55 -320 l32 -19 3 -177 2 -177 -25 -10
c-48 -18 -138 -12 -185 13 -64 34 -90 88 -90 187 0 110 30 170 100 199 35 15
125 6 163 -16z"/>
<path d="M10272 3540 l-23 -10 3 -332 c3 -289 5 -337 20 -364 18 -33 55 -54
93 -54 36 0 36 47 0 56 -14 3 -30 14 -35 24 -6 11 -10 156 -10 354 0 357 2
345 -48 326z"/>
<path d="M4297 3416 c-6 -39 -26 -306 -42 -553 l-5 -83 29 0 29 0 6 78 c3 42
8 124 11 182 8 149 24 293 33 302 7 7 173 -346 203 -430 10 -28 15 -33 40 -30
28 3 34 13 110 188 118 270 116 267 128 274 6 4 11 2 11 -3 0 -6 6 -82 14
-168 8 -87 18 -211 21 -275 l7 -118 30 0 30 0 -7 128 c-3 70 -13 208 -21 307
-7 99 -14 195 -14 213 0 30 -2 32 -35 32 -33 0 -36 -3 -72 -72 -20 -40 -71
-151 -112 -247 -42 -95 -80 -173 -86 -173 -5 0 -26 40 -48 89 -21 48 -72 159
-114 246 -75 154 -77 157 -108 157 -31 0 -33 -2 -38 -44z"/>
<path d="M7766 3398 c-13 -131 -36 -476 -36 -545 l0 -73 29 0 28 0 7 133 c9
178 25 386 32 417 6 24 7 24 27 -15 11 -22 60 -128 108 -235 83 -185 89 -195
115 -195 26 0 31 9 101 170 99 230 132 299 139 292 8 -8 31 -255 40 -427 l7
-140 34 0 34 0 -5 43 c-3 23 -8 98 -11 167 -3 69 -13 201 -21 295 -8 93 -14
170 -14 172 0 2 -15 3 -34 3 -34 0 -36 -2 -84 -102 -27 -57 -77 -169 -112
-250 -35 -82 -66 -148 -69 -148 -3 0 -34 64 -69 143 -35 78 -86 189 -115 247
-51 102 -54 105 -88 108 l-36 3 -7 -63z"/>
<path d="M6403 3443 l-23 -4 0 -272 c0 -246 2 -276 19 -314 24 -52 63 -73 134
-73 76 0 119 16 115 44 -2 15 -9 20 -23 17 -87 -15 -122 -12 -151 12 l-29 25
-3 181 -3 181 100 0 101 0 0 25 0 25 -100 0 -100 0 0 80 c0 44 -3 79 -7 79 -5
-1 -18 -4 -30 -6z"/>
<path d="M5215 3282 c-111 -52 -163 -204 -120 -350 31 -104 100 -151 221 -152
94 0 134 14 134 47 0 23 -3 24 -27 17 -16 -5 -63 -9 -105 -9 -62 0 -82 4 -105
21 -37 26 -74 101 -71 139 l3 30 179 3 179 2 -7 63 c-14 129 -74 195 -183 203
-43 4 -68 0 -98 -14z m141 -48 c36 -17 74 -82 74 -127 l0 -27 -145 0 c-164 0
-161 -1 -126 76 37 81 121 114 197 78z"/>
<path d="M5945 3292 c-24 -6 -31 -13 -33 -36 -3 -24 -1 -28 15 -21 10 4 43 9
74 12 94 9 149 -37 149 -124 l0 -39 -92 0 c-151 1 -208 -42 -208 -156 0 -50 4
-62 30 -92 44 -49 84 -60 206 -53 56 2 107 8 113 11 7 5 11 70 11 191 0 212
-9 250 -67 286 -37 23 -141 34 -198 21z m194 -267 c7 -3 11 -43 11 -95 0 -102
2 -100 -96 -100 -103 0 -144 30 -144 108 0 43 27 77 76 92 31 10 135 7 153 -5z"/>
<path d="M8705 3288 c-52 -18 -93 -56 -119 -110 -35 -74 -42 -140 -22 -219 30
-116 104 -179 211 -179 179 0 278 207 191 397 -46 98 -159 146 -261 111z m154
-65 c46 -34 71 -98 71 -183 0 -59 -5 -86 -22 -120 -57 -113 -185 -121 -262
-17 -16 22 -22 47 -25 109 -5 122 24 193 93 224 40 18 111 12 145 -13z"/>
<path d="M9845 3288 c-53 -18 -93 -56 -121 -115 -24 -48 -28 -68 -27 -137 1
-123 40 -196 128 -237 45 -21 147 -25 208 -8 33 9 37 13 31 32 -9 29 -6 28
-45 17 -48 -14 -124 -12 -162 4 -57 24 -97 89 -97 157 l0 29 175 0 175 0 0 43
c0 63 -26 139 -57 169 -55 53 -137 71 -208 46z m133 -58 c34 -21 71 -87 72
-127 0 -23 -1 -23 -145 -23 -139 0 -145 1 -145 20 0 26 32 90 57 112 45 41
111 48 161 18z"/>
<path d="M6740 3035 l0 -255 30 0 30 0 0 255 0 255 -30 0 -30 0 0 -255z"/>
<path d="M17925 27668 c-3 -7 -47 -139 -99 -293 -52 -154 -178 -522 -280 -818
-102 -296 -186 -543 -186 -548 0 -6 22 -9 52 -7 l52 3 139 410 c76 226 203
599 283 829 79 231 144 423 144 428 0 13 -100 10 -105 -4z"/>
<path d="M15755 27534 c-16 -2 -60 -9 -97 -15 l-68 -11 0 -594 0 -595 58 3 57
3 3 243 2 242 74 0 c40 0 107 3 148 6 l75 7 40 -54 c72 -97 180 -262 233 -356
l53 -93 58 0 c33 0 59 3 59 8 -1 30 -182 325 -278 452 -23 30 -42 57 -42 60 0
3 26 16 58 30 78 33 154 110 176 178 21 63 22 179 2 245 -38 125 -142 202
-315 233 -69 12 -221 16 -296 8z m335 -110 c71 -24 153 -101 169 -159 14 -51
14 -139 0 -189 -14 -51 -83 -118 -145 -141 -37 -13 -92 -19 -226 -22 l-178 -5
0 265 0 266 43 4 c94 10 282 -1 337 -19z"/>
<path d="M14400 27123 c1 -447 7 -515 56 -618 73 -155 247 -234 451 -205 139
19 234 80 291 187 56 107 62 166 62 628 l0 415 -55 0 -54 0 -3 -437 c-3 -427
-4 -439 -25 -493 -53 -131 -132 -190 -263 -198 -114 -7 -179 15 -245 82 -42
42 -58 67 -76 122 -22 67 -23 82 -27 497 l-3 427 -55 0 -54 0 0 -407z"/>
<path d="M16652 26928 l3 -603 333 -3 332 -2 0 50 0 50 -275 0 -275 0 0 555 0
555 -60 0 -60 0 2 -602z"/>
<path d="M18080 27485 l0 -45 193 -2 192 -3 3 -557 2 -558 55 0 55 0 0 560 0
560 190 0 190 0 0 45 0 45 -440 0 -440 0 0 -45z"/>
<path d="M20892 27498 l-43 -9 3 -487 c3 -476 4 -488 25 -542 44 -109 114
-152 248 -153 75 -1 168 18 204 42 23 15 -3 96 -27 85 -70 -29 -103 -35 -174
-32 -89 4 -119 21 -152 84 -20 37 -21 55 -21 339 l0 300 173 3 172 2 0 45 0
45 -175 0 -175 0 0 145 c0 80 -3 145 -7 144 -5 -1 -27 -5 -51 -11z"/>
<path d="M19307 27230 c-193 -49 -309 -245 -293 -500 15 -254 126 -389 346
-420 86 -12 157 -6 248 22 49 15 62 23 58 34 -3 9 -6 23 -6 32 0 38 -13 41
-75 20 -49 -17 -78 -19 -160 -16 -88 4 -108 8 -154 33 -82 45 -132 134 -147
260 l-7 55 307 0 306 0 0 78 c0 139 -47 272 -115 329 -75 64 -213 97 -308 73z
m192 -110 c71 -36 115 -110 127 -213 l7 -57 -257 0 -258 0 7 33 c28 139 102
230 210 258 42 11 122 1 164 -21z"/>
<path d="M20065 27004 l145 -216 -94 -131 c-88 -123 -216 -320 -216 -332 0 -3
25 -5 55 -5 l54 0 42 73 c59 102 200 297 214 297 13 0 141 -178 217 -301 l43
-69 57 0 c32 0 58 2 58 5 0 11 -186 296 -246 376 -35 48 -64 89 -64 93 0 3 60
95 133 203 74 109 137 204 141 211 5 9 -7 12 -48 12 l-56 0 -110 -165 c-61
-91 -115 -165 -120 -165 -5 0 -59 74 -120 165 l-110 165 -61 0 -60 0 146 -216z"/>
<path d="M17675 24870 c-16 -4 -88 -8 -160 -9 -71 -1 -136 -5 -143 -9 -10 -7
-12 -61 -9 -248 4 -277 22 -1174 38 -1879 6 -269 13 -607 16 -751 l5 -261
-106 -6 c-58 -3 -111 -9 -116 -12 -6 -3 -10 -48 -10 -98 l0 -92 43 -45 c23
-25 73 -82 112 -125 176 -201 301 -341 319 -357 15 -14 37 -18 108 -18 98 0
99 1 167 90 14 19 33 41 41 50 9 9 29 34 45 55 34 47 140 179 172 215 12 14
47 57 77 95 l56 70 0 93 0 92 -118 0 -119 0 -6 408 c-4 224 -11 558 -17 742
-11 329 -29 1193 -37 1725 -3 197 -7 271 -16 277 -15 10 -302 8 -342 -2z m240
-122 c4 -12 12 -371 45 -1998 5 -261 12 -621 16 -800 4 -182 11 -330 16 -337
7 -9 36 -11 105 -6 85 5 95 4 92 -10 -5 -23 -409 -529 -420 -525 -10 4 -439
491 -439 499 0 8 89 19 151 19 29 0 49 5 52 13 2 7 1 179 -4 382 -4 204 -13
629 -19 945 -7 316 -17 850 -24 1185 -9 393 -10 614 -4 622 7 9 62 13 187 16
97 1 191 4 209 5 19 1 34 -3 37 -10z"/>
<path d="M19255 19215 c-5 -2 -23 -6 -38 -9 l-28 -7 3 -452 c3 -410 5 -455 21
-484 19 -36 54 -58 109 -68 34 -6 38 -5 43 18 8 31 0 47 -24 47 -10 0 -27 10
-39 23 -22 23 -22 25 -22 480 0 251 -3 457 -7 456 -5 0 -12 -2 -18 -4z"/>
<path d="M14207 18921 c-4 -118 -7 -377 -7 -577 l0 -363 24 -28 24 -28 639 -3
c467 -2 645 1 666 9 55 23 55 15 49 632 -2 312 -8 567 -12 567 -4 0 -10 -111
-14 -247 -4 -137 -8 -249 -9 -250 -1 -1 -62 -3 -135 -4 -128 -2 -181 10 -94
22 52 7 62 19 62 82 0 58 -31 97 -79 97 -34 0 -36 2 -45 53 -7 37 -7 37 26 37
39 0 51 7 67 38 14 27 7 69 -16 95 -15 15 -43 17 -314 17 -252 0 -299 2 -306
15 -7 12 -10 11 -21 -5 -12 -20 -8 -20 301 -20 291 0 315 -1 330 -18 19 -20
22 -59 7 -82 -8 -13 -63 -15 -376 -18 l-367 -3 -55 -54 c-30 -30 -62 -55 -71
-55 -25 0 -61 42 -61 71 0 16 15 39 41 64 50 50 124 144 117 151 -3 2 -13 -7
-22 -21 -9 -14 -50 -58 -91 -98 -46 -44 -75 -81 -75 -94 0 -11 11 -36 24 -56
22 -32 24 -42 17 -89 -12 -76 5 -108 59 -108 22 0 40 -5 40 -10 0 -7 -50 -10
-142 -8 l-143 3 -7 75 c-4 41 -11 154 -15 250 l-8 175 -8 -214z m483 -66 c5
-48 6 -50 38 -53 l32 -3 0 50 c0 45 3 51 24 57 13 3 37 4 52 2 27 -3 29 -6 32
-55 l3 -53 40 0 39 0 0 49 c0 53 8 61 59 61 38 0 51 -17 51 -67 0 -42 0 -43
35 -43 33 0 35 2 35 36 0 58 14 74 65 74 51 0 60 -10 60 -65 l0 -40 45 -3 c56
-4 70 -16 70 -57 0 -41 -14 -53 -70 -57 l-45 -3 0 -70 0 -70 62 -3 c58 -3 63
-5 69 -28 4 -14 2 -36 -5 -50 l-11 -24 -467 2 -468 3 0 45 0 45 70 5 70 5 3
73 3 72 -45 0 c-68 0 -76 6 -76 55 0 49 8 55 76 55 l44 0 0 48 c0 27 3 52 7
56 4 4 28 6 53 4 l45 -3 5 -50z m593 -467 c14 -18 41 -64 61 -102 29 -55 34
-72 24 -83 -19 -23 -71 -41 -90 -32 -17 9 -108 180 -108 203 0 12 54 44 77 45
7 1 23 -14 36 -31z m-652 3 l23 -18 -34 -77 c-19 -42 -46 -91 -60 -108 -27
-32 -27 -32 -66 -17 -52 20 -54 42 -10 115 20 33 36 64 36 69 0 6 7 21 16 33
19 27 63 29 95 3z m199 -16 c7 -8 17 -51 23 -96 9 -75 8 -83 -8 -96 -27 -19
-82 -17 -94 5 -5 9 -11 55 -13 101 -3 83 -3 85 22 92 40 11 57 10 70 -6z m240
-27 c32 -73 44 -136 30 -153 -15 -18 -78 -31 -90 -19 -5 5 -21 49 -35 98 -30
102 -25 116 37 116 36 0 40 -3 58 -42z"/>
<path d="M16000 19070 l0 -40 145 0 145 0 0 -415 0 -415 40 0 40 0 0 415 0
415 140 0 140 0 0 40 0 40 -325 0 -325 0 0 -40z"/>
<path d="M20220 19080 l-35 -5 0 -375 0 -375 25 -44 c33 -59 73 -81 157 -87
116 -8 197 34 164 85 -8 12 -14 12 -43 0 -52 -21 -141 -18 -175 7 -46 34 -52
69 -52 307 l-1 217 130 0 130 0 0 35 0 35 -130 0 -129 0 -3 103 -3 102 -35 -5z"/>
<path d="M16930 18884 c-14 -2 -53 -11 -87 -20 l-63 -16 0 -324 0 -324 40 0
40 0 0 295 c0 272 1 296 18 303 9 4 66 7 125 7 l108 0 8 30 c5 21 4 32 -5 38
-15 9 -149 17 -184 11z"/>
<path d="M17390 18884 c-14 -2 -41 -9 -61 -14 -33 -9 -35 -12 -31 -46 4 -31 7
-35 26 -29 11 4 62 9 111 12 142 7 190 -29 202 -150 l6 -68 -54 8 c-133 20
-253 -3 -306 -60 -46 -48 -57 -76 -56 -143 1 -88 32 -137 113 -180 28 -15 57
-18 150 -18 63 0 141 6 173 13 l59 13 -4 251 c-4 273 -7 292 -63 351 -16 15
-44 35 -63 43 -36 15 -156 25 -202 17z m219 -355 l32 -11 -3 -122 -3 -121 -77
-8 c-102 -11 -181 5 -220 43 -24 25 -28 36 -28 87 0 70 16 98 74 124 47 21
173 26 225 8z"/>
<path d="M18057 18880 c-31 -5 -75 -14 -97 -20 l-40 -11 0 -324 0 -325 45 0
45 0 0 299 0 298 38 7 c65 10 182 6 215 -8 18 -7 42 -24 53 -37 41 -47 47 -84
52 -326 l4 -233 40 0 40 0 -4 243 c-5 260 -11 295 -63 363 -52 68 -181 97
-328 74z"/>
<path d="M18757 18876 c-64 -18 -97 -43 -124 -96 -27 -52 -29 -85 -7 -140 20
-50 66 -82 195 -139 119 -52 144 -76 144 -138 0 -36 -5 -49 -27 -68 -53 -45
-190 -54 -277 -19 -19 8 -35 13 -36 12 -1 -2 -7 -18 -13 -36 -11 -31 -10 -33
16 -43 131 -50 313 -30 379 42 35 38 49 108 34 161 -19 62 -71 106 -186 157
-114 49 -141 70 -155 119 -13 49 8 94 53 115 44 21 149 22 206 2 l41 -14 8 32
c10 39 7 42 -72 56 -75 14 -118 13 -179 -3z"/>
<path d="M19610 18879 c-67 -12 -74 -18 -65 -59 6 -27 10 -31 28 -25 12 4 63
10 112 12 82 4 93 3 125 -19 46 -31 70 -80 70 -146 0 -53 0 -54 -27 -48 -80
15 -115 16 -178 6 -140 -22 -211 -97 -202 -215 5 -76 27 -118 76 -150 59 -40
143 -51 269 -37 59 7 118 15 131 19 l23 6 -4 246 c-4 222 -6 250 -25 291 -24
54 -55 83 -107 105 -48 20 -154 27 -226 14z m258 -352 c16 -11 17 -243 0 -253
-6 -4 -57 -7 -112 -8 -146 0 -196 31 -204 128 -4 48 -1 56 28 89 18 20 46 41
64 47 35 11 205 8 224 -3z"/>
<path d="M20875 18884 c-93 -24 -160 -75 -200 -154 -69 -137 -52 -343 36 -444
56 -64 122 -89 234 -90 50 -1 111 5 138 13 45 13 48 16 45 45 -3 35 -6 35
-102 16 -99 -20 -200 5 -253 62 -28 30 -49 81 -58 141 l-7 47 242 0 243 0 -6
74 c-12 137 -58 226 -140 265 -43 21 -135 34 -172 25z m118 -88 c18 -7 42 -24
54 -37 26 -29 53 -100 53 -140 l0 -29 -195 0 -195 0 6 28 c18 85 57 142 117
171 48 24 113 27 160 7z"/>
<path d="M17710 17190 c-8 -5 -77 -10 -152 -10 l-138 0 0 -328 c0 -193 4 -332
9 -337 6 -6 11 -235 14 -565 2 -305 10 -858 17 -1228 11 -580 11 -675 -1 -683
-8 -5 -51 -9 -96 -9 -45 0 -88 -3 -97 -6 -13 -5 -16 -24 -16 -103 l0 -96 51
-55 c28 -30 65 -72 83 -94 52 -64 87 -104 290 -331 19 -22 36 -43 36 -47 0 -5
49 -8 109 -8 l110 0 23 33 c27 38 47 64 69 86 8 9 49 59 89 111 41 52 79 100
85 106 12 14 62 76 133 163 l52 66 -2 95 -3 95 -117 3 -118 3 -1 222 c0 122
-5 391 -10 597 -5 206 -16 690 -25 1075 -8 385 -18 824 -22 975 l-7 275 -175
2 c-102 2 -181 -1 -190 -7z m260 -122 c0 -7 5 -204 10 -438 10 -437 35 -1694
45 -2245 3 -170 8 -343 11 -382 l6 -73 105 0 105 0 -18 -27 c-43 -67 -407
-512 -414 -508 -4 3 -70 76 -146 162 -76 87 -174 197 -217 245 -43 48 -76 92
-72 98 3 6 46 10 100 10 53 0 97 4 100 10 4 6 2 225 -4 488 -24 1071 -42 2016
-44 2327 l-2 330 140 5 c273 11 295 11 295 -2z"/>
<path d="M17585 12284 c-5 -1 -22 -5 -37 -8 l-28 -6 0 -530 0 -530 40 0 40 0
0 175 c0 147 2 175 15 175 24 0 203 -178 267 -267 l60 -83 49 0 c27 0 49 3 49
8 0 32 -278 343 -334 374 -17 9 0 29 145 174 l164 164 -50 0 -50 0 -152 -152
c-104 -104 -154 -147 -158 -137 -3 7 -6 156 -7 330 -2 204 -7 315 -13 313z"/>
<path d="M14097 12155 c-15 -14 -34 -39 -42 -55 -14 -27 -14 -33 1 -62 9 -18
27 -46 40 -61 48 -57 28 -81 -74 -93 -36 -4 -67 -13 -74 -22 -9 -11 -13 -61
-13 -178 0 -187 1 -190 80 -200 114 -13 118 -22 53 -114 l-42 -60 16 -34 c20
-41 128 -158 182 -198 52 -38 79 -35 138 12 28 22 53 40 57 40 20 -1 31 -23
37 -75 3 -33 12 -69 19 -81 33 -53 308 -58 366 -7 11 9 19 39 23 83 10 94 25
99 110 31 21 -17 51 -31 65 -31 57 0 251 196 251 253 0 11 -18 44 -40 73 -22
29 -40 60 -40 68 0 21 32 36 77 36 84 0 111 43 112 175 1 80 -15 194 -30 211
-6 7 -39 16 -75 19 -58 7 -94 23 -94 43 0 4 18 34 40 67 22 33 40 67 40 76 0
18 -60 98 -73 98 -5 1 3 -13 17 -30 44 -52 43 -72 -3 -133 -69 -89 -53 -132
54 -150 78 -12 82 -18 84 -112 1 -75 -8 -114 -29 -114 -9 0 -22 -11 -28 -25
-7 -14 -20 -25 -31 -25 -11 0 -43 -5 -72 -11 -49 -11 -52 -13 -75 -65 -32 -72
-30 -88 11 -144 19 -26 35 -51 35 -55 0 -10 -61 -79 -97 -109 l-33 -27 -56 40
c-32 23 -63 41 -69 41 -20 0 -123 -48 -131 -61 -4 -7 -12 -40 -18 -73 -10 -57
-13 -60 -46 -69 -45 -12 -141 -2 -151 15 -5 7 -9 27 -9 43 -2 68 -21 96 -84
121 -33 13 -65 24 -71 24 -6 0 -35 -18 -65 -40 -39 -29 -57 -37 -69 -31 -34
19 -122 121 -115 134 4 6 23 34 41 61 37 53 36 59 -3 138 -25 50 -28 51 -119
66 -41 6 -51 11 -53 29 -2 13 -12 23 -25 25 -18 2 -23 12 -30 56 -5 28 -5 76
0 105 l8 52 67 11 c75 12 93 23 103 61 5 20 -3 37 -39 83 -26 32 -46 63 -46
70 0 13 27 57 54 88 26 30 17 28 -17 -3z"/>
<path d="M15852 12088 c16 -46 56 -157 88 -248 78 -223 108 -302 173 -455 30
-71 58 -140 62 -153 6 -20 12 -23 53 -20 l47 3 76 185 c42 102 113 291 159
420 45 129 91 257 101 283 26 66 25 69 -23 65 l-43 -3 -42 -125 c-130 -380
-259 -714 -273 -705 -3 2 -76 191 -161 419 l-154 416 -47 0 -47 0 31 -82z"/>
<path d="M18225 12154 c-5 -1 -23 -5 -38 -8 l-28 -7 3 -392 c3 -351 5 -396 21
-432 19 -42 51 -81 79 -96 82 -44 288 -19 288 35 0 41 -13 48 -59 31 -55 -19
-144 -19 -180 0 -58 30 -66 65 -69 328 l-4 237 146 0 146 0 0 40 0 40 -145 0
-144 0 -3 113 c-2 70 -7 113 -13 111z"/>
<path d="M14559 12056 c-99 -27 -184 -97 -236 -198 -23 -45 -27 -68 -31 -153
-3 -84 0 -109 17 -156 58 -154 212 -257 368 -247 105 7 177 40 249 113 150
152 152 381 7 536 -25 27 -64 59 -87 72 -75 45 -195 58 -287 33z m225 -151
c174 -102 163 -361 -19 -446 -53 -25 -156 -25 -211 0 -78 35 -145 145 -144
235 1 41 22 99 54 144 68 99 214 129 320 67z"/>
<path d="M16985 11941 c-128 -34 -214 -143 -237 -301 -12 -84 1 -197 33 -271
23 -54 92 -123 143 -144 61 -26 161 -36 231 -25 91 15 115 27 115 61 0 37 -10
42 -60 24 -50 -18 -158 -20 -215 -4 -83 23 -155 133 -155 236 l0 33 246 0 247
0 -6 83 c-10 149 -59 242 -150 286 -48 23 -146 34 -192 22z m172 -97 c40 -29
83 -118 83 -171 l0 -43 -201 0 -202 0 7 41 c11 70 52 137 104 170 43 28 53 30
114 27 48 -3 76 -10 95 -24z"/>
<path d="M18900 11937 c-174 -49 -272 -250 -226 -466 36 -171 151 -274 306
-274 163 0 282 116 310 301 28 183 -51 364 -185 423 -57 25 -148 32 -205 16z
m163 -81 c47 -19 102 -87 122 -152 24 -78 18 -229 -14 -299 -28 -63 -55 -93
-106 -116 -117 -54 -246 10 -289 143 -20 63 -21 208 -2 272 33 108 104 166
204 166 29 0 67 -6 85 -14z"/>
<path d="M20405 11941 c-73 -19 -114 -53 -140 -114 -32 -76 -8 -172 54 -216
16 -12 77 -43 135 -71 128 -59 156 -86 156 -147 0 -24 -5 -53 -11 -65 -28 -53
-170 -75 -278 -42 -57 17 -65 14 -75 -28 -6 -25 -3 -28 47 -44 34 -11 83 -17
143 -18 81 0 98 4 150 30 81 40 106 84 102 176 -5 98 -31 127 -189 205 -139
70 -169 96 -169 151 0 75 52 112 156 112 37 0 84 -5 105 -12 45 -13 47 -12 55
29 5 28 3 31 -28 42 -42 15 -174 23 -213 12z"/>
<path d="M20970 11939 c-66 -11 -74 -18 -65 -59 5 -24 11 -30 23 -24 10 4 62
9 117 11 92 4 103 3 135 -19 50 -33 70 -80 70 -161 l0 -67 -42 7 c-63 12 -179
8 -231 -7 -102 -28 -165 -120 -154 -225 9 -84 41 -134 110 -169 53 -27 67 -30
155 -29 53 0 130 6 170 12 l72 13 0 262 c0 310 -6 341 -74 404 -63 58 -149 73
-286 51z m254 -389 l26 -10 0 -129 c0 -150 9 -141 -130 -141 -106 0 -148 12
-185 50 -22 23 -29 41 -32 82 -8 107 58 157 209 158 48 0 98 -4 112 -10z"/>
<path d="M21652 11932 c-64 -23 -89 -45 -113 -97 -36 -77 -13 -179 49 -224 17
-11 78 -43 136 -71 133 -61 156 -83 156 -145 0 -26 -5 -55 -11 -67 -28 -52
-171 -75 -275 -43 -27 8 -52 15 -56 15 -5 0 -28 -54 -28 -66 0 -1 24 -10 53
-20 34 -11 83 -17 143 -18 81 0 98 4 150 30 74 36 104 83 104 162 0 107 -34
145 -206 228 -124 59 -154 87 -154 143 0 74 52 111 156 111 37 0 84 -5 105
-12 45 -13 47 -12 55 29 5 28 3 31 -28 42 -63 22 -178 24 -236 3z"/>
<path d="M19610 11930 c-25 -4 -63 -14 -85 -22 l-40 -13 -3 -343 -2 -342 40 0
40 0 0 315 c0 291 1 316 18 323 9 4 70 7 135 7 l118 0 8 30 c5 21 4 32 -6 38
-20 12 -172 17 -223 7z"/>
<path d="M19972 11573 l3 -358 38 -3 37 -3 0 360 0 361 -40 0 -40 0 2 -357z"/>
<path d="M22140 11570 l0 -360 40 0 40 0 0 360 0 360 -40 0 -40 0 0 -360z"/>
<path d="M15836 6730 c-43 -5 -84 -14 -92 -21 -12 -10 -14 -85 -12 -462 l3
-451 40 -9 c74 -17 293 -13 365 7 217 60 330 218 330 461 0 293 -165 460 -475
479 -44 2 -115 0 -159 -4z m321 -102 c105 -43 171 -114 205 -220 16 -51 19
-83 15 -173 -5 -142 -29 -208 -101 -281 -79 -78 -137 -97 -313 -102 l-143 -4
0 400 c0 311 3 402 13 406 6 3 68 4 137 3 107 -3 134 -7 187 -29z"/>
<path d="M17377 6693 c-17 -4 -18 -26 -15 -391 l3 -387 25 -50 c14 -27 40 -60
58 -72 49 -32 133 -40 212 -19 77 20 83 25 74 60 -5 23 -10 26 -28 21 -41 -14
-166 -17 -194 -6 -16 7 -37 26 -48 44 -17 29 -19 55 -22 275 l-3 242 135 0
136 0 0 40 0 40 -135 0 -135 0 0 105 c0 103 -1 105 -22 104 -13 -1 -31 -3 -41
-6z"/>
<path d="M19907 6693 c-17 -4 -18 -25 -15 -391 3 -418 5 -430 61 -490 48 -51
189 -65 280 -27 37 15 46 35 28 64 -7 11 -15 11 -41 2 -42 -14 -152 -14 -183
0 -13 6 -32 25 -43 42 -17 29 -19 57 -22 275 l-3 242 141 0 141 0 -3 38 -3 37
-137 3 -138 3 0 104 c0 114 0 114 -63 98z"/>
<path d="M16795 6490 c-90 -13 -97 -18 -89 -53 3 -18 8 -33 9 -35 1 -2 23 2
49 9 68 17 179 8 213 -17 43 -31 63 -80 63 -151 0 -35 -3 -63 -7 -63 -5 0 -35
4 -67 10 -72 12 -181 -2 -235 -30 -135 -69 -148 -272 -23 -357 67 -44 216 -53
365 -21 l47 10 0 257 c0 206 -3 267 -15 303 -18 52 -64 103 -110 122 -43 18
-139 26 -200 16z m235 -386 c7 -7 10 -59 8 -135 l-3 -124 -112 -3 c-130 -3
-172 9 -203 60 -33 55 -22 139 24 177 36 30 91 41 183 38 51 -2 98 -8 103 -13z"/>
<path d="M18030 6490 c-93 -12 -102 -17 -94 -53 3 -18 8 -33 9 -35 1 -2 23 2
49 9 25 6 77 10 115 7 112 -6 157 -53 163 -168 l3 -65 -30 2 c-213 15 -304 -9
-362 -95 -45 -68 -39 -181 14 -251 44 -57 101 -76 228 -75 61 0 136 6 168 13
l58 13 -3 276 c-3 272 -3 278 -27 319 -33 57 -85 91 -157 103 -32 6 -63 9 -69
9 -5 -1 -35 -5 -65 -9z m234 -389 c22 -19 24 -232 1 -251 -10 -8 -50 -11 -132
-8 -104 3 -122 6 -150 26 -58 41 -68 142 -20 197 35 41 90 56 193 52 58 -2 98
-8 108 -16z"/>
<path d="M18709 6490 c-135 -24 -208 -132 -164 -246 21 -56 59 -85 182 -138
170 -73 182 -83 185 -148 2 -54 -11 -76 -56 -97 -52 -26 -187 -29 -261 -6 -27
8 -50 13 -51 12 0 -1 -6 -17 -12 -35 -11 -31 -10 -33 16 -43 82 -31 197 -37
287 -14 69 18 101 38 133 85 27 40 30 125 6 177 -23 48 -62 75 -197 134 -158
69 -192 112 -152 188 28 56 168 80 265 46 24 -8 45 -13 47 -11 2 2 6 19 9 38
6 34 5 35 -37 46 -67 16 -149 21 -200 12z"/>
<path d="M19351 6484 c-63 -17 -97 -39 -145 -96 -59 -69 -79 -135 -79 -263 0
-125 21 -200 75 -261 71 -81 199 -118 329 -96 83 14 109 26 109 50 0 38 -16
46 -58 34 -22 -7 -77 -12 -123 -12 -127 1 -186 34 -227 130 -11 25 -23 66 -26
92 l-7 48 248 2 248 3 -3 70 c-5 144 -52 235 -144 278 -69 33 -130 39 -197 21z
m164 -87 c48 -27 95 -110 95 -169 l0 -38 -200 0 -200 0 0 25 c0 33 24 90 55
131 54 71 171 95 250 51z"/>
<path d="M19273 5293 l-23 -4 0 -520 0 -519 40 0 40 0 0 170 c0 94 3 170 6
170 32 0 206 -170 284 -277 l45 -62 53 -1 53 0 -33 46 c-56 79 -171 206 -247
273 l-72 64 158 159 158 158 -46 0 c-44 0 -46 -1 -193 -145 -81 -80 -152 -145
-157 -145 -5 0 -9 135 -9 320 0 352 5 325 -57 313z"/>
<path d="M16272 4826 l3 -363 35 -68 c61 -119 174 -174 328 -161 167 14 265
106 292 276 5 36 10 203 10 373 l0 307 -40 0 -40 0 0 -303 c0 -327 -7 -394
-47 -469 -76 -140 -298 -158 -401 -33 -58 71 -62 103 -62 471 l0 334 -41 0
-40 0 3 -364z"/>
<path d="M17952 5163 l-23 -5 3 -386 3 -387 25 -50 c14 -27 40 -60 58 -72 58
-38 177 -41 261 -7 29 12 32 17 26 41 -9 37 -10 38 -47 22 -42 -17 -148 -18
-180 -1 -13 8 -33 28 -44 45 -17 29 -19 56 -22 275 l-3 242 140 0 141 0 0 35
0 34 -137 3 -138 3 -3 108 c-3 116 0 111 -60 100z"/>
<path d="M17230 4942 l-65 -17 -3 -337 -2 -338 40 0 40 0 0 309 c0 285 1 309
18 316 9 4 62 10 117 12 90 4 104 2 144 -19 82 -43 100 -119 101 -425 l0 -193
41 0 42 0 -6 248 c-4 204 -8 257 -23 302 -23 68 -82 130 -140 148 -59 17 -226
14 -304 -6z"/>
<path d="M18460 4733 c0 -322 25 -405 136 -463 45 -23 58 -25 169 -23 68 0
141 7 170 15 l50 14 3 337 2 337 -35 0 -35 0 0 -305 c0 -352 11 -320 -116
-331 -131 -11 -203 22 -240 108 -15 37 -19 79 -22 286 l-4 242 -39 0 -39 0 0
-217z"/>
<path d="M17725 3751 l-30 -6 0 -465 c0 -435 1 -467 19 -503 20 -41 51 -61
108 -72 33 -6 36 -5 42 20 8 32 11 29 -36 48 -29 12 -39 23 -47 54 -7 24 -11
200 -11 486 0 246 -3 446 -7 446 -5 -1 -21 -4 -38 -8z"/>
<path d="M19645 3751 l-30 -6 -3 -518 -2 -517 40 0 40 0 0 299 c0 227 3 301
13 309 21 17 135 35 191 29 150 -15 176 -79 176 -429 l0 -208 41 0 41 0 -4
253 c-4 229 -7 257 -26 308 -37 95 -104 140 -217 147 -43 2 -95 -2 -135 -11
-35 -9 -68 -13 -72 -11 -5 3 -8 86 -8 185 0 98 -3 178 -7 178 -5 -1 -21 -4
-38 -8z"/>
<path d="M15820 3638 c0 -7 -7 -80 -14 -163 -8 -82 -22 -265 -30 -405 -9 -140
-17 -279 -19 -307 l-4 -53 42 0 41 0 12 278 c14 305 29 483 41 495 10 10 301
-593 301 -623 0 -6 18 -10 40 -10 33 0 42 4 49 23 38 99 289 617 300 617 14 0
37 -257 57 -647 l7 -133 39 0 40 0 -6 93 c-4 50 -13 198 -21 327 -15 223 -28
383 -41 478 -5 40 -7 42 -39 42 -31 0 -38 -5 -65 -52 -40 -69 -181 -360 -251
-515 -30 -67 -58 -121 -62 -120 -5 1 -23 36 -42 77 -77 176 -181 393 -237 498
l-61 112 -38 0 c-25 0 -39 -5 -39 -12z"/>
<path d="M18778 3623 l-28 -4 0 -364 c0 -409 4 -448 56 -505 54 -60 166 -77
269 -42 47 16 50 19 47 47 -2 16 -5 31 -7 33 -1 2 -26 -4 -54 -14 -63 -20
-142 -15 -179 13 -45 33 -51 69 -51 321 l-1 232 135 0 135 0 0 35 0 35 -135 0
-135 0 0 110 c0 82 -3 110 -12 109 -7 -1 -25 -4 -40 -6z"/>
<path d="M17127 3406 c-92 -34 -160 -111 -191 -215 -21 -70 -21 -208 0 -281
23 -81 77 -148 149 -185 54 -28 66 -30 164 -30 69 1 120 6 146 16 36 13 40 18
37 44 -2 17 -5 31 -7 33 -2 2 -27 -4 -56 -12 -116 -35 -243 -12 -302 53 -38
42 -67 120 -67 178 l0 33 245 0 245 0 0 58 c0 130 -48 233 -133 286 -38 23
-61 30 -120 33 -46 2 -86 -2 -110 -11z m170 -75 c25 -12 52 -35 67 -58 26 -40
51 -127 42 -150 -4 -10 -48 -13 -207 -13 l-202 0 7 41 c24 150 166 237 293
180z"/>
<path d="M18140 3407 c-41 -11 -45 -15 -43 -41 3 -39 6 -40 57 -27 25 6 70 11
101 11 117 0 179 -67 173 -188 l-3 -57 -30 5 c-16 3 -70 5 -120 4 -132 0 -209
-37 -246 -119 -37 -80 -16 -190 47 -249 56 -52 172 -68 329 -46 119 17 107
-17 103 293 -3 259 -4 274 -25 314 -27 50 -73 87 -128 102 -51 14 -157 13
-215 -2z m253 -368 l37 -10 0 -128 0 -128 -37 -7 c-60 -9 -162 -7 -204 5 -55
17 -90 58 -96 113 -9 79 33 138 111 156 47 12 146 11 189 -1z"/>
<path d="M19290 3060 l0 -350 40 0 40 0 0 350 0 350 -40 0 -40 0 0 -350z"/>
<path d="M18595 2211 l-30 -6 -3 -188 c-1 -103 -6 -187 -10 -187 -5 0 -27 9
-50 20 -24 12 -71 23 -105 27 -210 19 -353 -152 -334 -400 11 -151 84 -262
200 -305 71 -27 205 -30 308 -6 l69 16 0 519 c0 285 -3 518 -7 518 -5 -1 -21
-4 -38 -8z m-87 -437 l52 -25 0 -254 c0 -176 -3 -256 -11 -261 -6 -4 -51 -9
-100 -12 -120 -7 -170 8 -231 69 -62 62 -82 128 -76 248 7 141 61 231 158 260
53 16 147 5 208 -25z"/>
<path d="M19645 2211 l-30 -6 0 -470 c0 -431 1 -473 18 -502 22 -40 53 -62
102 -70 26 -4 40 -2 46 8 17 27 8 44 -30 60 -32 14 -42 24 -50 55 -7 25 -11
199 -11 487 0 246 -3 446 -7 446 -5 -1 -21 -4 -38 -8z"/>
<path d="M16186 2088 c-11 -51 -38 -414 -61 -810 l-6 -108 40 0 c41 0 41 0 41
38 0 141 39 711 50 731 6 10 18 -6 43 -55 42 -83 245 -517 258 -550 7 -19 16
-24 46 -24 37 0 39 2 62 58 49 115 281 585 287 580 10 -11 33 -276 45 -530
l13 -248 38 0 38 0 0 58 c0 83 -28 511 -45 692 -8 85 -15 163 -15 173 0 13 -9
17 -38 17 l-39 0 -56 -102 c-54 -100 -146 -293 -232 -488 -23 -52 -46 -95 -52
-97 -5 -2 -27 36 -48 84 -49 114 -199 427 -250 523 -38 71 -42 75 -77 78 -32
3 -38 0 -42 -20z"/>
<path d="M17504 1862 c-76 -27 -129 -74 -164 -146 -107 -216 -26 -489 162
-552 62 -20 177 -15 226 10 125 65 190 200 179 370 -6 97 -34 178 -82 234 -74
85 -214 123 -321 84z m161 -63 c25 -7 58 -29 87 -58 61 -61 82 -129 76 -252
-7 -159 -82 -257 -203 -267 -59 -5 -122 13 -160 46 -120 102 -126 370 -11 481
56 55 131 72 211 50z"/>
<path d="M19042 1861 c-117 -40 -192 -158 -200 -316 -9 -185 42 -300 163 -363
69 -36 224 -43 300 -15 46 17 50 21 47 48 -2 17 -6 32 -7 34 -2 2 -25 -4 -51
-13 -54 -18 -161 -21 -217 -5 -84 23 -149 114 -151 209 l-1 55 243 3 242 2 0
49 c0 69 -17 147 -42 199 -56 111 -193 159 -326 113z m198 -85 c43 -28 77 -91
86 -159 l7 -47 -208 0 -208 0 7 41 c14 84 79 166 151 189 47 15 124 4 165 -24z"/>
</g>
</svg>
